<svg width="136" height="96" viewBox="0 0 136 96" fill="none" xmlns="http://www.w3.org/2000/svg">
<path d="M110.135 7.92969e-06H9.53468C9.16798 7.92969e-06 8.80568 7.92975e-06 8.43995 0.00200793C8.1338 0.00400793 7.83009 0.00981793 7.521 0.0147079C6.84951 0.0226097 6.17961 0.0816842 5.5171 0.191418C4.85552 0.303541 4.21467 0.514924 3.61622 0.818418C3.0185 1.12448 2.47235 1.52218 1.99757 1.99708C1.5203 2.47064 1.12246 3.01802 0.81935 3.61817C0.5154 4.21712 0.304641 4.85895 0.19435 5.52149C0.0830109 6.18319 0.0230984 6.85253 0.01515 7.52349C0.00587 7.83009 0.00489 8.13771 0 8.44435V31.5586C0.00489 31.8691 0.00587 32.1699 0.01515 32.4805C0.0231008 33.1514 0.0830134 33.8207 0.19435 34.4824C0.304336 35.1453 0.515108 35.7875 0.81935 36.3867C1.12233 36.9849 1.52022 37.5301 1.99757 38.001C2.47054 38.478 3.01705 38.876 3.61622 39.1797C4.21467 39.484 4.85545 39.6967 5.5171 39.8105C6.17972 39.9194 6.84956 39.9785 7.521 39.9873C7.83009 39.9941 8.1338 39.998 8.43995 39.998C8.80567 40 9.168 40 9.53468 40H110.135C110.494 40 110.859 40 111.219 39.998C111.523 39.998 111.836 39.9941 112.141 39.9873C112.811 39.9789 113.479 39.9198 114.141 39.8105C114.804 39.6959 115.448 39.4833 116.049 39.1797C116.647 38.8758 117.193 38.4779 117.666 38.001C118.142 37.5282 118.541 36.9835 118.848 36.3867C119.15 35.7871 119.358 35.145 119.467 34.4824C119.578 33.8206 119.64 33.1515 119.652 32.4805C119.656 32.1699 119.656 31.8691 119.656 31.5586C119.664 31.1953 119.664 30.834 119.664 30.4648V9.53614C119.664 9.16993 119.664 8.80665 119.656 8.44435C119.656 8.13771 119.656 7.83009 119.652 7.52345C119.64 6.85243 119.578 6.18324 119.467 5.52145C119.358 4.85929 119.149 4.21751 118.848 3.61813C118.23 2.4152 117.252 1.43603 116.049 0.818328C115.448 0.515575 114.804 0.304248 114.141 0.191328C113.48 0.0811107 112.811 0.0220157 112.141 0.0145679C111.836 0.00968793 111.523 0.00382793 111.219 0.00187793C110.859 -0.00012207 110.494 -0.00012207 110.135 -0.00012207V7.92969e-06Z" fill="#A6A6A6"/>
<path d="M9.54174 39.125C9.19292 39.125 8.85253 39.1211 8.50645 39.1143C7.78952 39.1061 7.07426 39.0516 6.36654 38.9512C5.70663 38.8519 5.06736 38.6673 4.46981 38.4033C3.87773 38.1415 3.33771 37.7983 2.87043 37.3867C2.39639 36.98 2.00173 36.5082 1.70209 35.9902C1.39914 35.4688 1.18949 34.9099 1.08043 34.333C0.962649 33.7131 0.898926 33.0863 0.889808 32.458C0.882549 32.2471 0.873047 31.5449 0.873047 31.5449V8.44434C0.873047 8.44434 0.883168 7.75293 0.889865 7.5498C0.898595 6.92248 0.961948 6.29665 1.07937 5.67773C1.18864 5.09925 1.39846 4.53875 1.70156 4.01563C2.0001 3.49794 2.39257 3.02586 2.86376 2.61768C3.33441 2.20562 3.87616 1.8606 4.46924 1.59521C5.06543 1.33209 5.70349 1.14873 6.36207 1.05127C7.07211 0.949836 7.78985 0.894996 8.50927 0.88721L9.5423 0.875H127.198L128.244 0.8877C128.956 0.895099 129.668 0.94945 130.371 1.05029C131.036 1.14898 131.681 1.33362 132.284 1.59814C133.472 2.13299 134.439 2.97916 135.049 4.01807C135.347 4.53758 135.554 5.09351 135.662 5.66699C135.781 6.29099 135.847 6.92174 135.861 7.5542C135.864 7.8374 135.864 8.1416 135.864 8.44434C135.873 8.81934 135.873 9.17627 135.873 9.53613V30.4648C135.873 30.8281 135.873 31.1826 135.864 31.54C135.864 31.8652 135.864 32.1631 135.86 32.4697C135.846 33.0909 135.781 33.7104 135.664 34.3232C135.557 34.9043 135.349 35.4675 135.046 35.9932C134.744 36.5056 134.352 36.9733 133.883 37.3789C133.415 37.7927 132.874 38.1379 132.281 38.4014C131.679 38.6674 131.036 38.8527 130.371 38.9512C129.664 39.0522 128.948 39.1067 128.231 39.1143C127.896 39.1211 127.545 39.125 127.204 39.125L125.963 39.127L9.54174 39.125Z" fill="black"/>
<path d="M24.769 20.3011C24.7797 19.4664 25.0014 18.648 25.4135 17.9221C25.8255 17.1961 26.4145 16.5862 27.1256 16.149C26.6738 15.5038 26.0779 14.9729 25.385 14.5983C24.6922 14.2238 23.9216 14.016 23.1344 13.9913C21.4552 13.8151 19.8272 14.9962 18.9715 14.9962C18.0992 14.9962 16.7817 14.0088 15.363 14.038C14.4453 14.0677 13.551 14.3345 12.7671 14.8126C11.9832 15.2906 11.3365 15.9636 10.8901 16.7659C8.95607 20.1143 10.3987 25.0354 12.2513 27.742C13.1782 29.0673 14.2615 30.5478 15.6789 30.4953C17.066 30.4377 17.584 29.6108 19.2583 29.6108C20.9171 29.6108 21.4031 30.4953 22.8493 30.4619C24.3377 30.4377 25.2754 29.1306 26.1698 27.7927C26.8358 26.8484 27.3483 25.8047 27.6882 24.7002C26.8235 24.3345 26.0856 23.7223 25.5665 22.94C25.0474 22.1577 24.77 21.2399 24.769 20.3011Z" fill="white"/>
<path d="M22.0376 12.2113C22.8491 11.2371 23.2489 9.98494 23.1521 8.7207C21.9123 8.85092 20.767 9.44348 19.9445 10.3803C19.5424 10.838 19.2344 11.3704 19.0381 11.9472C18.8419 12.524 18.7612 13.1337 18.8008 13.7417C19.4209 13.7481 20.0344 13.6137 20.5951 13.3486C21.1558 13.0835 21.649 12.6946 22.0376 12.2113Z" fill="white"/>
<path d="M42.3022 27.1397H37.5688L36.4321 30.4961H34.4272L38.9106 18.0781H40.9936L45.477 30.4961H43.438L42.3022 27.1397ZM38.0591 25.5908H41.8111L39.9615 20.1436H39.9097L38.0591 25.5908Z" fill="white"/>
<path d="M55.1597 25.9695C55.1597 28.7829 53.6538 30.5905 51.3814 30.5905C50.8057 30.6207 50.2332 30.4881 49.7294 30.2079C49.2256 29.9278 48.8109 29.5114 48.5327 29.0065H48.4897V33.4909H46.6313V21.4421H48.4302V22.948H48.4644C48.7553 22.4455 49.1771 22.0313 49.6847 21.7495C50.1923 21.4676 50.7669 21.3287 51.3472 21.3474C53.645 21.3474 55.1597 23.1638 55.1597 25.9695ZM53.2495 25.9695C53.2495 24.1365 52.3023 22.9314 50.857 22.9314C49.437 22.9314 48.482 24.1618 48.482 25.9695C48.482 27.7937 49.437 29.0154 50.857 29.0154C52.3023 29.0154 53.2495 27.8191 53.2495 25.9695Z" fill="white"/>
<path d="M65.1245 25.9694C65.1245 28.7829 63.6187 30.5905 61.3462 30.5905C60.7706 30.6206 60.1981 30.488 59.6943 30.2079C59.1905 29.9278 58.7758 29.5114 58.4976 29.0065H58.4546V33.4909H56.5962V21.4421H58.395V22.948H58.4292C58.7201 22.4455 59.1419 22.0313 59.6495 21.7495C60.1571 21.4676 60.7317 21.3287 61.312 21.3474C63.6099 21.3474 65.1245 23.1638 65.1245 25.9694ZM63.2144 25.9694C63.2144 24.1364 62.2671 22.9314 60.8218 22.9314C59.4019 22.9314 58.4468 24.1618 58.4468 25.9694C58.4468 27.7937 59.4019 29.0153 60.8218 29.0153C62.2671 29.0153 63.2144 27.8191 63.2144 25.9694H63.2144Z" fill="white"/>
<path d="M71.7105 27.0362C71.8482 28.2676 73.0445 29.0762 74.6792 29.0762C76.2456 29.0762 77.3726 28.2676 77.3726 27.1572C77.3726 26.1934 76.6929 25.6162 75.0835 25.2207L73.4742 24.833C71.1939 24.2822 70.1353 23.2158 70.1353 21.4854C70.1353 19.3428 72.0025 17.8711 74.6538 17.8711C77.2778 17.8711 79.0767 19.3428 79.1372 21.4854H77.2612C77.1489 20.2461 76.1245 19.4981 74.6274 19.4981C73.1304 19.4981 72.106 20.2549 72.106 21.3565C72.106 22.2344 72.7603 22.751 74.3608 23.1465L75.729 23.4824C78.2769 24.0849 79.3355 25.1084 79.3355 26.9248C79.3355 29.248 77.4849 30.7031 74.5415 30.7031C71.7876 30.7031 69.9282 29.2822 69.8081 27.0361L71.7105 27.0362Z" fill="white"/>
<path d="M83.3462 19.2998V21.4424H85.0679V22.9141H83.3462V27.9053C83.3462 28.6807 83.6909 29.042 84.4477 29.042C84.6521 29.0384 84.8562 29.0241 85.0591 28.999V30.4619C84.7188 30.5255 84.3729 30.5543 84.0268 30.5478C82.1938 30.5478 81.479 29.8593 81.479 28.1035V22.9141H80.1626V21.4424H81.479V19.2998H83.3462Z" fill="white"/>
<path d="M86.0649 25.9697C86.0649 23.1211 87.7427 21.3311 90.3589 21.3311C92.9839 21.3311 94.6538 23.1211 94.6538 25.9697C94.6538 28.8262 92.9927 30.6084 90.3589 30.6084C87.726 30.6084 86.0649 28.8262 86.0649 25.9697ZM92.7602 25.9697C92.7602 24.0156 91.8647 22.8623 90.3589 22.8623C88.853 22.8623 87.9585 24.0244 87.9585 25.9697C87.9585 27.9316 88.853 29.0762 90.3589 29.0762C91.8647 29.0762 92.7602 27.9316 92.7602 25.9697H92.7602Z" fill="white"/>
<path d="M96.186 21.442H97.9585V22.983H98.0015C98.1214 22.5017 98.4034 22.0764 98.8 21.7785C99.1966 21.4806 99.6836 21.3284 100.179 21.3473C100.393 21.3465 100.607 21.3698 100.816 21.4166V23.1549C100.546 23.0723 100.264 23.0343 99.981 23.0426C99.711 23.0316 99.4418 23.0792 99.192 23.1821C98.9421 23.285 98.7175 23.4408 98.5335 23.6386C98.3496 23.8365 98.2106 24.0719 98.1262 24.3286C98.0417 24.5852 98.0139 24.8571 98.0444 25.1256V30.4957H96.186L96.186 21.442Z" fill="white"/>
<path d="M109.384 27.8369C109.134 29.4805 107.534 30.6084 105.486 30.6084C102.852 30.6084 101.217 28.8437 101.217 26.0127C101.217 23.1729 102.861 21.3311 105.408 21.3311C107.913 21.3311 109.488 23.0518 109.488 25.7969V26.4336H103.093V26.5459C103.064 26.8791 103.105 27.2148 103.216 27.5306C103.326 27.8464 103.502 28.1352 103.732 28.3778C103.963 28.6203 104.242 28.8111 104.552 28.9374C104.861 29.0637 105.195 29.1226 105.529 29.1103C105.968 29.1515 106.409 29.0498 106.785 28.8203C107.162 28.5909 107.455 28.246 107.62 27.8369L109.384 27.8369ZM103.102 25.1348H107.628C107.645 24.8352 107.6 24.5354 107.495 24.2541C107.39 23.9729 107.229 23.7164 107.02 23.5006C106.812 23.2849 106.561 23.1145 106.283 23.0003C106.006 22.8861 105.708 22.8305 105.408 22.8369C105.105 22.8351 104.805 22.8933 104.525 23.008C104.245 23.1227 103.99 23.2918 103.776 23.5054C103.562 23.7191 103.392 23.973 103.276 24.2527C103.16 24.5323 103.101 24.8321 103.102 25.1348V25.1348Z" fill="white"/>
<path d="M37.8262 8.73053C38.2158 8.70257 38.6067 8.76143 38.9709 8.90286C39.335 9.04429 39.6632 9.26477 39.9317 9.5484C40.2003 9.83202 40.4026 10.1717 40.524 10.543C40.6454 10.9143 40.6829 11.3079 40.6338 11.6954C40.6338 13.6016 39.6035 14.6974 37.8262 14.6974H35.6709V8.73053H37.8262ZM36.5976 13.8535H37.7226C38.0011 13.8702 38.2797 13.8245 38.5382 13.7199C38.7967 13.6153 39.0287 13.4543 39.2172 13.2488C39.4057 13.0432 39.546 12.7982 39.6278 12.5316C39.7097 12.265 39.7311 11.9834 39.6904 11.7075C39.7281 11.4327 39.7046 11.1529 39.6215 10.8883C39.5383 10.6236 39.3977 10.3806 39.2096 10.1767C39.0216 9.97273 38.7907 9.81292 38.5337 9.70868C38.2766 9.60445 37.9996 9.55836 37.7226 9.57374H36.5976V13.8535Z" fill="white"/>
<path d="M41.6805 12.4439C41.6521 12.148 41.686 11.8494 41.7798 11.5674C41.8737 11.2853 42.0254 11.026 42.2254 10.806C42.4253 10.586 42.669 10.4102 42.9409 10.2899C43.2127 10.1697 43.5067 10.1075 43.804 10.1075C44.1013 10.1075 44.3952 10.1697 44.6671 10.2899C44.939 10.4102 45.1827 10.586 45.3826 10.806C45.5825 11.026 45.7343 11.2853 45.8281 11.5674C45.922 11.8494 45.9558 12.148 45.9275 12.4439C45.9564 12.7401 45.9229 13.0391 45.8293 13.3217C45.7357 13.6042 45.5841 13.864 45.3841 14.0844C45.1841 14.3048 44.9402 14.481 44.6681 14.6015C44.3959 14.722 44.1016 14.7843 43.804 14.7843C43.5064 14.7843 43.212 14.722 42.9399 14.6015C42.6678 14.481 42.4239 14.3048 42.2239 14.0844C42.0239 13.864 41.8722 13.6042 41.7786 13.3217C41.6851 13.0391 41.6516 12.7401 41.6805 12.4439ZM45.0135 12.4439C45.0135 11.4679 44.575 10.8971 43.8055 10.8971C43.033 10.8971 42.5985 11.4679 42.5985 12.4439C42.5985 13.4278 43.033 13.9942 43.8055 13.9942C44.575 13.9942 45.0135 13.4239 45.0135 12.4439H45.0135Z" fill="white"/>
<path d="M51.5732 14.6973H50.6514L49.7207 11.3809H49.6504L48.7236 14.6973H47.8105L46.5693 10.1943H47.4707L48.2773 13.6303H48.3438L49.2695 10.1943H50.1221L51.0479 13.6303H51.1182L51.9209 10.1943H52.8096L51.5732 14.6973Z" fill="white"/>
<path d="M53.8535 10.1939H54.709V10.9092H54.7754C54.888 10.6523 55.0781 10.4369 55.3189 10.2931C55.5598 10.1493 55.8395 10.0842 56.1191 10.107C56.3382 10.0905 56.5582 10.1235 56.7628 10.2036C56.9674 10.2837 57.1514 10.4088 57.3011 10.5697C57.4508 10.7305 57.5623 10.923 57.6275 11.1328C57.6927 11.3426 57.7099 11.5644 57.6777 11.7818V14.6968H56.7891V12.0049C56.7891 11.2813 56.4746 10.9214 55.8174 10.9214C55.6686 10.9145 55.5201 10.9398 55.3821 10.9957C55.244 11.0515 55.1197 11.1365 55.0175 11.2449C54.9154 11.3533 54.8379 11.4825 54.7904 11.6236C54.7429 11.7647 54.7264 11.9145 54.7422 12.0625V14.6968H53.8535L53.8535 10.1939Z" fill="white"/>
<path d="M59.0938 8.43652H59.9824V14.6973H59.0938V8.43652Z" fill="white"/>
<path d="M61.2175 12.4439C61.1893 12.1479 61.2231 11.8494 61.317 11.5673C61.4109 11.2852 61.5626 11.0259 61.7626 10.8059C61.9626 10.5859 62.2063 10.4101 62.4782 10.2898C62.75 10.1696 63.044 10.1074 63.3413 10.1074C63.6386 10.1074 63.9326 10.1696 64.2045 10.2898C64.4764 10.4101 64.7201 10.5859 64.92 10.8059C65.12 11.0259 65.2718 11.2852 65.3656 11.5673C65.4595 11.8494 65.4934 12.1479 65.4651 12.4439C65.4939 12.7401 65.4604 13.0391 65.3668 13.3216C65.2732 13.6042 65.1215 13.864 64.9215 14.0844C64.7215 14.3048 64.4776 14.4809 64.2054 14.6014C63.9333 14.722 63.639 14.7842 63.3413 14.7842C63.0437 14.7842 62.7493 14.722 62.4772 14.6014C62.2051 14.4809 61.9612 14.3048 61.7612 14.0844C61.5611 13.864 61.4095 13.6042 61.3158 13.3216C61.2222 13.0391 61.1887 12.7401 61.2175 12.4439ZM64.5505 12.4439C64.5505 11.4678 64.1121 10.897 63.3425 10.897C62.5701 10.897 62.1355 11.4678 62.1355 12.4439C62.1355 13.4278 62.5701 13.9942 63.3425 13.9942C64.1121 13.9942 64.5505 13.4239 64.5505 12.4439H64.5505Z" fill="white"/>
<path d="M66.4009 13.4238C66.4009 12.6133 67.0044 12.146 68.0757 12.0796L69.2954 12.0093V11.6206C69.2954 11.145 68.981 10.8765 68.3735 10.8765C67.8774 10.8765 67.5337 11.0586 67.4351 11.377H66.5747C66.6655 10.6035 67.3931 10.1074 68.4146 10.1074C69.5435 10.1074 70.1802 10.6694 70.1802 11.6206V14.6973H69.3247V14.0645H69.2544C69.1117 14.2914 68.9113 14.4765 68.6737 14.6007C68.436 14.7249 68.1697 14.7838 67.9019 14.7715C67.7128 14.7911 67.5218 14.7709 67.341 14.7122C67.1602 14.6536 66.9938 14.5576 66.8524 14.4307C66.711 14.3037 66.5977 14.1485 66.52 13.9751C66.4422 13.8017 66.4016 13.6139 66.4009 13.4238ZM69.2954 13.0391V12.6626L68.1958 12.7329C67.5757 12.7744 67.2944 12.9853 67.2944 13.3823C67.2944 13.7876 67.646 14.0234 68.1294 14.0234C68.2711 14.0378 68.4142 14.0235 68.5502 13.9814C68.6862 13.9393 68.8123 13.8703 68.9211 13.7784C69.0299 13.6866 69.1191 13.5738 69.1834 13.4468C69.2477 13.3198 69.2858 13.1811 69.2954 13.0391Z" fill="white"/>
<path d="M71.3481 12.4439C71.3481 11.021 72.0796 10.1196 73.2173 10.1196C73.4987 10.1067 73.778 10.1741 74.0225 10.314C74.267 10.4539 74.4667 10.6605 74.5981 10.9096H74.6646V8.43652H75.5532V14.6973H74.7017V13.9858H74.6314C74.4897 14.2333 74.2831 14.4374 74.0339 14.5758C73.7846 14.7143 73.5022 14.782 73.2173 14.7715C72.0718 14.7715 71.3481 13.8701 71.3481 12.4439ZM72.2661 12.4439C72.2661 13.3989 72.7163 13.9737 73.4693 13.9737C74.2183 13.9737 74.6812 13.3907 74.6812 12.4478C74.6812 11.5093 74.2134 10.918 73.4693 10.918C72.7212 10.918 72.2661 11.4966 72.2661 12.4439H72.2661Z" fill="white"/>
<path d="M79.2298 12.4439C79.2015 12.148 79.2353 11.8494 79.3292 11.5674C79.423 11.2853 79.5748 11.026 79.7747 10.806C79.9746 10.586 80.2183 10.4102 80.4902 10.2899C80.762 10.1697 81.056 10.1075 81.3533 10.1075C81.6506 10.1075 81.9446 10.1697 82.2164 10.2899C82.4883 10.4102 82.732 10.586 82.9319 10.806C83.1319 11.026 83.2836 11.2853 83.3775 11.5674C83.4713 11.8494 83.5052 12.148 83.4768 12.4439C83.5057 12.7401 83.4722 13.0391 83.3786 13.3217C83.2851 13.6042 83.1334 13.864 82.9334 14.0844C82.7334 14.3048 82.4895 14.481 82.2174 14.6015C81.9453 14.722 81.6509 14.7843 81.3533 14.7843C81.0557 14.7843 80.7613 14.722 80.4892 14.6015C80.2171 14.481 79.9732 14.3048 79.7732 14.0844C79.5732 13.864 79.4216 13.6042 79.328 13.3217C79.2344 13.0391 79.2009 12.7401 79.2298 12.4439ZM82.5628 12.4439C82.5628 11.4679 82.1243 10.8971 81.3548 10.8971C80.5823 10.8971 80.1478 11.4679 80.1478 12.4439C80.1478 13.4278 80.5823 13.9942 81.3548 13.9942C82.1243 13.9942 82.5628 13.4239 82.5628 12.4439Z" fill="white"/>
<path d="M84.6694 10.1939H85.5249V10.9092H85.5913C85.704 10.6523 85.894 10.4369 86.1348 10.2931C86.3757 10.1493 86.6555 10.0842 86.9351 10.107C87.1542 10.0905 87.3742 10.1235 87.5788 10.2036C87.7834 10.2837 87.9673 10.4088 88.117 10.5697C88.2667 10.7305 88.3783 10.923 88.4435 11.1328C88.5087 11.3426 88.5258 11.5644 88.4937 11.7818V14.6968H87.605V12.0049C87.605 11.2813 87.2905 10.9214 86.6333 10.9214C86.4846 10.9145 86.336 10.9398 86.198 10.9957C86.0599 11.0515 85.9356 11.1365 85.8335 11.2449C85.7313 11.3533 85.6539 11.4825 85.6063 11.6236C85.5588 11.7647 85.5423 11.9145 85.5581 12.0625V14.6968H84.6694V10.1939Z" fill="white"/>
<path d="M93.5151 9.07324V10.2148H94.4907V10.9634H93.5151V13.2788C93.5151 13.7505 93.7095 13.957 94.1519 13.957C94.2651 13.9567 94.3783 13.9498 94.4907 13.9365V14.6768C94.3311 14.7053 94.1694 14.7205 94.0073 14.7222C93.019 14.7222 92.6255 14.3745 92.6255 13.5063V10.9633H91.9106V10.2148H92.6255V9.07324H93.5151Z" fill="white"/>
<path d="M95.7046 8.43652H96.5854V10.918H96.6558C96.7739 10.6587 96.9691 10.4421 97.2148 10.2977C97.4605 10.1534 97.7447 10.0883 98.0288 10.1113C98.2467 10.0995 98.4646 10.1359 98.6669 10.2179C98.8692 10.2999 99.0508 10.4256 99.199 10.586C99.3471 10.7463 99.458 10.9373 99.5238 11.1455C99.5896 11.3536 99.6086 11.5737 99.5795 11.79V14.6973H98.69V12.0093C98.69 11.29 98.355 10.9258 97.7271 10.9258C97.5743 10.9132 97.4207 10.9342 97.2769 10.9873C97.1332 11.0404 97.0027 11.1242 96.8947 11.2329C96.7867 11.3417 96.7038 11.4727 96.6517 11.6168C96.5997 11.761 96.5797 11.9147 96.5933 12.0674V14.6973H95.7046L95.7046 8.43652Z" fill="white"/>
<path d="M104.761 13.4814C104.641 13.8929 104.379 14.2489 104.022 14.4871C103.666 14.7252 103.237 14.8304 102.81 14.7841C102.514 14.792 102.219 14.7351 101.946 14.6176C101.674 14.5001 101.43 14.3247 101.232 14.1035C101.034 13.8824 100.887 13.6208 100.8 13.337C100.713 13.0532 100.69 12.7539 100.73 12.4599C100.691 12.165 100.715 11.8651 100.801 11.5804C100.888 11.2958 101.035 11.033 101.231 10.8099C101.428 10.5868 101.671 10.4087 101.943 10.2875C102.214 10.1663 102.509 10.1048 102.806 10.1074C104.059 10.1074 104.815 10.9634 104.815 12.3774V12.6875H101.635V12.7373C101.621 12.9025 101.642 13.0688 101.696 13.2256C101.751 13.3823 101.837 13.5261 101.95 13.6475C102.063 13.769 102.2 13.8655 102.352 13.9309C102.504 13.9963 102.669 14.0291 102.835 14.0273C103.047 14.0528 103.263 14.0145 103.453 13.9173C103.644 13.8201 103.802 13.6683 103.906 13.4814L104.761 13.4814ZM101.635 12.0302H103.91C103.921 11.8791 103.9 11.7273 103.85 11.5846C103.799 11.4419 103.718 11.3114 103.614 11.2015C103.51 11.0917 103.383 11.0049 103.243 10.9467C103.103 10.8885 102.953 10.8603 102.801 10.8637C102.648 10.8618 102.495 10.8907 102.353 10.9486C102.21 11.0065 102.081 11.0924 101.972 11.2011C101.864 11.3098 101.778 11.4392 101.72 11.5816C101.662 11.724 101.633 11.8765 101.635 12.0302H101.635Z" fill="white"/>
<path d="M130 56H5C2.23858 56 0 58.2386 0 61V91C0 93.7614 2.23858 96 5 96H130C132.761 96 135 93.7614 135 91V61C135 58.2386 132.761 56 130 56Z" fill="black"/>
<path d="M130 56.8C131.114 56.8 132.182 57.2425 132.97 58.0302C133.758 58.8178 134.2 59.8861 134.2 61V91C134.2 92.1139 133.758 93.1822 132.97 93.9698C132.182 94.7575 131.114 95.2 130 95.2H5C3.88609 95.2 2.8178 94.7575 2.03015 93.9698C1.2425 93.1822 0.8 92.1139 0.8 91V61C0.8 59.8861 1.2425 58.8178 2.03015 58.0302C2.8178 57.2425 3.88609 56.8 5 56.8H130ZM130 56H5C3.67392 56 2.40215 56.5268 1.46447 57.4645C0.526784 58.4021 0 59.6739 0 61V91C0 92.3261 0.526784 93.5979 1.46447 94.5355C2.40215 95.4732 3.67392 96 5 96H130C131.326 96 132.598 95.4732 133.536 94.5355C134.473 93.5979 135 92.3261 135 91V61C135 59.6739 134.473 58.4021 133.536 57.4645C132.598 56.5268 131.326 56 130 56Z" fill="#A6A6A6"/>
<path d="M44.3757 66.4858H46.4666V69.3869C46.1529 69.4933 45.8297 69.5724 45.4969 69.6242C45.1668 69.676 44.7972 69.702 44.388 69.702C43.7661 69.702 43.2409 69.5778 42.8127 69.3296C42.3871 69.0814 42.0639 68.7281 41.8429 68.2698C41.622 67.8088 41.5115 67.2619 41.5115 66.629C41.5115 66.0098 41.6329 65.4697 41.8756 65.0087C42.1212 64.5477 42.4744 64.1903 42.9354 63.9366C43.3992 63.6802 43.9556 63.552 44.6049 63.552C44.9377 63.552 45.2527 63.5834 45.5501 63.6461C45.8501 63.7061 46.1284 63.792 46.3848 63.9039L46.1188 64.5095C45.8979 64.414 45.6537 64.3322 45.3864 64.264C45.1218 64.1958 44.8477 64.1617 44.564 64.1617C44.0757 64.1617 43.6569 64.2626 43.3078 64.4645C42.9613 64.6663 42.6954 64.9514 42.5099 65.3196C42.3271 65.6879 42.2357 66.1244 42.2357 66.629C42.2357 67.1282 42.3162 67.5633 42.4771 67.9343C42.6381 68.3026 42.889 68.589 43.23 68.7936C43.571 68.9982 44.0102 69.1005 44.5476 69.1005C44.8176 69.1005 45.0495 69.0855 45.2432 69.0554C45.4369 69.0227 45.6128 68.9845 45.771 68.9409V67.1078H44.3757V66.4858ZM51.2459 69.6201H47.9151V63.6379H51.2459V64.2517H48.6107V66.1871H51.0945V66.7927H48.6107V69.0063H51.2459V69.6201ZM54.4088 69.6201H53.7091V64.2517H51.8269V63.6379H56.2829V64.2517H54.4088V69.6201ZM59.364 69.6201V63.6379H60.0596V69.6201H59.364ZM63.5417 69.6201H62.842V64.2517H60.9598V63.6379H65.4158V64.2517H63.5417V69.6201ZM73.6853 66.6208C73.6853 67.0818 73.6266 67.5019 73.5093 67.8811C73.392 68.2575 73.2174 68.5822 72.9856 68.855C72.7564 69.125 72.4714 69.3337 72.1304 69.481C71.7894 69.6283 71.3939 69.702 70.9438 69.702C70.48 69.702 70.0749 69.6283 69.7285 69.481C69.3848 69.3337 69.0984 69.1236 68.8692 68.8509C68.6428 68.5781 68.4723 68.2521 68.3578 67.8729C68.2459 67.4937 68.19 67.0737 68.19 66.6126C68.19 66.0016 68.2909 65.4656 68.4928 65.0046C68.6946 64.5436 69.0002 64.1848 69.4093 63.9284C69.8213 63.672 70.3368 63.5438 70.956 63.5438C71.548 63.5438 72.0458 63.6706 72.4496 63.9243C72.856 64.178 73.1629 64.5354 73.3702 64.9964C73.5803 65.4547 73.6853 65.9961 73.6853 66.6208ZM68.9224 66.6208C68.9224 67.1282 68.9947 67.5674 69.1393 67.9384C69.2839 68.3094 69.5048 68.5958 69.8022 68.7977C70.1022 68.9995 70.4828 69.1005 70.9438 69.1005C71.4075 69.1005 71.7867 68.9995 72.0813 68.7977C72.3786 68.5958 72.5982 68.3094 72.7401 67.9384C72.8819 67.5674 72.9528 67.1282 72.9528 66.6208C72.9528 65.8488 72.7905 65.246 72.4659 64.8123C72.144 64.3758 71.6407 64.1576 70.956 64.1576C70.4923 64.1576 70.1104 64.2571 69.8103 64.4563C69.5103 64.6554 69.2866 64.9391 69.1393 65.3074C68.9947 65.6729 68.9224 66.1107 68.9224 66.6208ZM79.6961 69.6201H78.8941L75.633 64.5954H75.6002C75.6084 64.7291 75.618 64.8818 75.6289 65.0537C75.6398 65.2228 75.648 65.4042 75.6534 65.5979C75.6616 65.7888 75.6657 65.9839 75.6657 66.183V69.6201H75.0192V63.6379H75.8171L79.066 68.6463H79.0946C79.0892 68.5508 79.0824 68.4158 79.0742 68.2412C79.066 68.0639 79.0578 67.8743 79.0496 67.6724C79.0442 67.4678 79.0414 67.2782 79.0414 67.1037V63.6379H79.6961V69.6201Z" fill="white"/>
<path d="M44.3757 66.4858V66.3858H44.2757V66.4858H44.3757ZM46.4666 66.4858H46.5666V66.3858H46.4666V66.4858ZM46.4666 69.3869L46.4988 69.4816L46.5666 69.4586V69.3869H46.4666ZM45.4969 69.6242L45.4815 69.5254L45.4814 69.5254L45.4969 69.6242ZM42.8127 69.3296L42.7623 69.416L42.7625 69.4161L42.8127 69.3296ZM41.8429 68.2698L41.7527 68.313L41.7528 68.3133L41.8429 68.2698ZM41.8756 65.0087L41.7874 64.9617L41.7872 64.9621L41.8756 65.0087ZM42.9354 63.9366L42.9836 64.0242L42.9838 64.0241L42.9354 63.9366ZM45.5501 63.6461L45.5294 63.7439L45.5305 63.7442L45.5501 63.6461ZM46.3848 63.9039L46.4764 63.9441L46.5167 63.8523L46.4248 63.8122L46.3848 63.9039ZM46.1188 64.5095L46.0792 64.6013L46.1704 64.6407L46.2104 64.5497L46.1188 64.5095ZM45.3864 64.264L45.3614 64.3608L45.3617 64.3609L45.3864 64.264ZM43.3078 64.4645L43.2577 64.3779L43.2574 64.3781L43.3078 64.4645ZM42.5099 65.3196L42.4206 65.2747L42.4203 65.2752L42.5099 65.3196ZM42.4771 67.9343L42.3854 67.9741L42.3855 67.9743L42.4771 67.9343ZM43.23 68.7936L43.1786 68.8793L43.23 68.7936ZM45.2432 69.0554L45.2585 69.1543L45.2599 69.1541L45.2432 69.0554ZM45.771 68.9409L45.7976 69.0373L45.871 69.017V68.9409H45.771ZM45.771 67.1078H45.871V67.0078H45.771V67.1078ZM44.3757 67.1078H44.2757V67.2078H44.3757V67.1078ZM44.3757 66.5858H46.4666V66.3858H44.3757V66.5858ZM46.3666 66.4858V69.3869H46.5666V66.4858H46.3666ZM46.4345 69.2922C46.1264 69.3967 45.8087 69.4744 45.4815 69.5254L45.5123 69.723C45.8507 69.6703 46.1795 69.5899 46.4988 69.4816L46.4345 69.2922ZM45.4814 69.5254C45.1574 69.5763 44.7931 69.602 44.388 69.602V69.802C44.8013 69.802 45.1762 69.7758 45.5124 69.723L45.4814 69.5254ZM44.388 69.602C43.7792 69.602 43.2724 69.4805 42.8628 69.2431L42.7625 69.4161C43.2095 69.6752 43.7529 69.802 44.388 69.802V69.602ZM42.8631 69.2432C42.4553 69.0054 42.1456 68.6673 41.933 68.2264L41.7528 68.3133C41.9821 68.7889 42.3189 69.1574 42.7623 69.416L42.8631 69.2432ZM41.9331 68.2266C41.7199 67.7819 41.6115 67.2504 41.6115 66.629H41.4115C41.4115 67.2734 41.524 67.8357 41.7527 68.313L41.9331 68.2266ZM41.6115 66.629C41.6115 66.023 41.7302 65.4994 41.9641 65.0553L41.7872 64.9621C41.5355 65.4399 41.4115 65.9966 41.4115 66.629H41.6115ZM41.9639 65.0557C42.2002 64.6119 42.5395 64.2686 42.9836 64.0242L42.8872 63.849C42.4093 64.112 42.0421 64.4834 41.7874 64.9617L41.9639 65.0557ZM42.9838 64.0241C43.4297 63.7775 43.9688 63.652 44.6049 63.652V63.452C43.9425 63.452 43.3686 63.5828 42.887 63.8491L42.9838 64.0241ZM44.6049 63.652C44.9314 63.652 45.2395 63.6828 45.5294 63.7439L45.5707 63.5482C45.266 63.4839 44.944 63.452 44.6049 63.452V63.652ZM45.5305 63.7442C45.8242 63.8029 46.0955 63.8868 46.3448 63.9955L46.4248 63.8122C46.1612 63.6973 45.8761 63.6093 45.5697 63.548L45.5305 63.7442ZM46.2932 63.8637L46.0273 64.4693L46.2104 64.5497L46.4764 63.9441L46.2932 63.8637ZM46.1585 64.4177C45.9321 64.3198 45.6828 64.2364 45.4111 64.1671L45.3617 64.3609C45.6246 64.4279 45.8637 64.5082 46.0792 64.6013L46.1585 64.4177ZM45.4114 64.1671C45.1383 64.0967 44.8557 64.0617 44.564 64.0617V64.2617C44.8396 64.2617 45.1053 64.2948 45.3614 64.3608L45.4114 64.1671ZM44.564 64.0617C44.0618 64.0617 43.625 64.1655 43.2577 64.3779L43.3578 64.551C43.6889 64.3596 44.0895 64.2617 44.564 64.2617V64.0617ZM43.2574 64.3781C42.8938 64.5899 42.6145 64.8896 42.4206 65.2747L42.5992 65.3646C42.7762 65.0131 43.0289 64.7427 43.3581 64.5509L43.2574 64.3781ZM42.4203 65.2752C42.2293 65.66 42.1357 66.1124 42.1357 66.629H42.3357C42.3357 66.1363 42.4249 65.7158 42.5994 65.3641L42.4203 65.2752ZM42.1357 66.629C42.1357 67.1388 42.2179 67.588 42.3854 67.9741L42.5689 67.8945C42.4145 67.5386 42.3357 67.1176 42.3357 66.629H42.1357ZM42.3855 67.9743C42.5547 68.3614 42.8196 68.6639 43.1786 68.8793L43.2815 68.7078C42.9585 68.514 42.7215 68.2437 42.5688 67.8943L42.3855 67.9743ZM43.1786 68.8793C43.5396 69.096 43.9982 69.2005 44.5476 69.2005V69.0005C44.0222 69.0005 43.6024 68.9004 43.2815 68.7078L43.1786 68.8793ZM44.5476 69.2005C44.821 69.2005 45.0583 69.1853 45.2585 69.1543L45.2279 68.9566C45.0408 68.9856 44.8143 69.0005 44.5476 69.0005V69.2005ZM45.2599 69.1541C45.4563 69.1209 45.6356 69.082 45.7976 69.0373L45.7444 68.8445C45.5901 68.8871 45.4175 68.9246 45.2265 68.9568L45.2599 69.1541ZM45.871 68.9409V67.1078H45.671V68.9409H45.871ZM45.771 67.0078H44.3757V67.2078H45.771V67.0078ZM44.4757 67.1078V66.4858H44.2757V67.1078H44.4757ZM51.2459 69.6201V69.7201H51.3459V69.6201H51.2459ZM47.9151 69.6201H47.8151V69.7201H47.9151V69.6201ZM47.9151 63.6379V63.5379H47.8151V63.6379H47.9151ZM51.2459 63.6379H51.3459V63.5379H51.2459V63.6379ZM51.2459 64.2517V64.3517H51.3459V64.2517H51.2459ZM48.6107 64.2517V64.1517H48.5107V64.2517H48.6107ZM48.6107 66.1871H48.5107V66.2871H48.6107V66.1871ZM51.0945 66.1871H51.1945V66.0871H51.0945V66.1871ZM51.0945 66.7927V66.8927H51.1945V66.7927H51.0945ZM48.6107 66.7927V66.6927H48.5107V66.7927H48.6107ZM48.6107 69.0063H48.5107V69.1063H48.6107V69.0063ZM51.2459 69.0063H51.3459V68.9063H51.2459V69.0063ZM51.2459 69.5201H47.9151V69.7201H51.2459V69.5201ZM48.0151 69.6201V63.6379H47.8151V69.6201H48.0151ZM47.9151 63.7379H51.2459V63.5379H47.9151V63.7379ZM51.1459 63.6379V64.2517H51.3459V63.6379H51.1459ZM51.2459 64.1517H48.6107V64.3517H51.2459V64.1517ZM48.5107 64.2517V66.1871H48.7107V64.2517H48.5107ZM48.6107 66.2871H51.0945V66.0871H48.6107V66.2871ZM50.9945 66.1871V66.7927H51.1945V66.1871H50.9945ZM51.0945 66.6927H48.6107V66.8927H51.0945V66.6927ZM48.5107 66.7927V69.0063H48.7107V66.7927H48.5107ZM48.6107 69.1063H51.2459V68.9063H48.6107V69.1063ZM51.1459 69.0063V69.6201H51.3459V69.0063H51.1459ZM54.4088 69.6201V69.7201H54.5088V69.6201H54.4088ZM53.7091 69.6201H53.6091V69.7201H53.7091V69.6201ZM53.7091 64.2517H53.8091V64.1517H53.7091V64.2517ZM51.8269 64.2517H51.7269V64.3517H51.8269V64.2517ZM51.8269 63.6379V63.5379H51.7269V63.6379H51.8269ZM56.2829 63.6379H56.3829V63.5379H56.2829V63.6379ZM56.2829 64.2517V64.3517H56.3829V64.2517H56.2829ZM54.4088 64.2517V64.1517H54.3088V64.2517H54.4088ZM54.4088 69.5201H53.7091V69.7201H54.4088V69.5201ZM53.8091 69.6201V64.2517H53.6091V69.6201H53.8091ZM53.7091 64.1517H51.8269V64.3517H53.7091V64.1517ZM51.9269 64.2517V63.6379H51.7269V64.2517H51.9269ZM51.8269 63.7379H56.2829V63.5379H51.8269V63.7379ZM56.1829 63.6379V64.2517H56.3829V63.6379H56.1829ZM56.2829 64.1517H54.4088V64.3517H56.2829V64.1517ZM54.3088 64.2517V69.6201H54.5088V64.2517H54.3088ZM59.364 69.6201H59.264V69.7201H59.364V69.6201ZM59.364 63.6379V63.5379H59.264V63.6379H59.364ZM60.0596 63.6379H60.1596V63.5379H60.0596V63.6379ZM60.0596 69.6201V69.7201H60.1596V69.6201H60.0596ZM59.464 69.6201V63.6379H59.264V69.6201H59.464ZM59.364 63.7379H60.0596V63.5379H59.364V63.7379ZM59.9596 63.6379V69.6201H60.1596V63.6379H59.9596ZM60.0596 69.5201H59.364V69.7201H60.0596V69.5201ZM63.5417 69.6201V69.7201H63.6417V69.6201H63.5417ZM62.842 69.6201H62.742V69.7201H62.842V69.6201ZM62.842 64.2517H62.942V64.1517H62.842V64.2517ZM60.9598 64.2517H60.8598V64.3517H60.9598V64.2517ZM60.9598 63.6379V63.5379H60.8598V63.6379H60.9598ZM65.4158 63.6379H65.5158V63.5379H65.4158V63.6379ZM65.4158 64.2517V64.3517H65.5158V64.2517H65.4158ZM63.5417 64.2517V64.1517H63.4417V64.2517H63.5417ZM63.5417 69.5201H62.842V69.7201H63.5417V69.5201ZM62.942 69.6201V64.2517H62.742V69.6201H62.942ZM62.842 64.1517H60.9598V64.3517H62.842V64.1517ZM61.0598 64.2517V63.6379H60.8598V64.2517H61.0598ZM60.9598 63.7379H65.4158V63.5379H60.9598V63.7379ZM65.3158 63.6379V64.2517H65.5158V63.6379H65.3158ZM65.4158 64.1517H63.5417V64.3517H65.4158V64.1517ZM63.4417 64.2517V69.6201H63.6417V64.2517H63.4417ZM73.5093 67.8811L73.6048 67.9109L73.6049 67.9107L73.5093 67.8811ZM72.9856 68.855L72.9094 68.7902L72.9093 68.7903L72.9856 68.855ZM72.1304 69.481L72.17 69.5728L72.1304 69.481ZM69.7285 69.481L69.6891 69.5729L69.6894 69.573L69.7285 69.481ZM68.8692 68.8509L68.7923 68.9147L68.7927 68.9152L68.8692 68.8509ZM68.3578 67.8729L68.2618 67.9012L68.262 67.9018L68.3578 67.8729ZM69.4093 63.9284L69.3565 63.8435L69.3562 63.8437L69.4093 63.9284ZM72.4496 63.9243L72.3963 64.009L72.3966 64.0092L72.4496 63.9243ZM73.3702 64.9964L73.279 65.0374L73.2793 65.0381L73.3702 64.9964ZM69.8022 68.7977L69.746 68.8804L69.7463 68.8806L69.8022 68.7977ZM72.0813 68.7977L72.0251 68.7149L72.0248 68.7152L72.0813 68.7977ZM72.4659 64.8123L72.3854 64.8716L72.3859 64.8722L72.4659 64.8123ZM69.8103 64.4563L69.755 64.3729L69.8103 64.4563ZM69.1393 65.3074L69.0464 65.2702L69.0463 65.2706L69.1393 65.3074ZM73.5853 66.6208C73.5853 67.0734 73.5277 67.4833 73.4138 67.8516L73.6049 67.9107C73.7256 67.5205 73.7853 67.0903 73.7853 66.6208H73.5853ZM73.4139 67.8514C73.3002 68.2163 73.1317 68.5287 72.9094 68.7902L73.0618 68.9197C73.3032 68.6357 73.4839 68.2988 73.6048 67.9109L73.4139 67.8514ZM72.9093 68.7903C72.6906 69.048 72.4183 69.2477 72.0907 69.3892L72.17 69.5728C72.5244 69.4197 72.8222 69.202 73.0618 68.9196L72.9093 68.7903ZM72.0907 69.3892C71.7646 69.5301 71.3831 69.602 70.9438 69.602V69.802C71.4047 69.802 71.8142 69.7265 72.17 69.5728L72.0907 69.3892ZM70.9438 69.602C70.4904 69.602 70.0992 69.5299 69.7676 69.389L69.6894 69.573C70.0507 69.7267 70.4696 69.802 70.9438 69.802V69.602ZM69.7679 69.3891C69.4378 69.2476 69.1644 69.0467 68.9458 68.7865L68.7927 68.9152C69.0324 69.2005 69.3318 69.4198 69.6891 69.5729L69.7679 69.3891ZM68.9462 68.787C68.7292 68.5256 68.5646 68.2119 68.4535 67.844L68.262 67.9018C68.38 68.2923 68.5564 68.6305 68.7923 68.9147L68.9462 68.787ZM68.4537 67.8446C68.3449 67.476 68.29 67.0656 68.29 66.6126H68.09C68.09 67.0817 68.1469 67.5115 68.2618 67.9012L68.4537 67.8446ZM68.29 66.6126C68.29 66.0125 68.3891 65.4906 68.5844 65.0447L68.4012 64.9645C68.1927 65.4405 68.09 65.9907 68.09 66.6126H68.29ZM68.5844 65.0447C68.7786 64.6013 69.071 64.2584 69.4624 64.0132L69.3562 63.8437C68.9293 64.1112 68.6107 64.4859 68.4012 64.9645L68.5844 65.0447ZM69.4622 64.0133C69.8544 63.7692 70.3504 63.6438 70.956 63.6438V63.4438C70.3232 63.4438 69.7881 63.5749 69.3565 63.8435L69.4622 64.0133ZM70.956 63.6438C71.5337 63.6438 72.012 63.7675 72.3963 64.009L72.5028 63.8397C72.0796 63.5738 71.5623 63.4438 70.956 63.4438V63.6438ZM72.3966 64.0092C72.7853 64.2518 73.0793 64.5934 73.279 65.0374L73.4614 64.9554C73.2464 64.4773 72.9267 64.1043 72.5025 63.8395L72.3966 64.0092ZM73.2793 65.0381C73.4821 65.4805 73.5853 66.0072 73.5853 66.6208H73.7853C73.7853 65.9851 73.6784 65.4288 73.4611 64.9547L73.2793 65.0381ZM68.8224 66.6208C68.8224 67.1374 68.896 67.5894 69.0461 67.9747L69.2325 67.9021C69.0934 67.5454 69.0224 67.1191 69.0224 66.6208H68.8224ZM69.0461 67.9747C69.1972 68.3624 69.4301 68.666 69.746 68.8804L69.8583 68.7149C69.5795 68.5257 69.3705 68.2563 69.2325 67.9021L69.0461 67.9747ZM69.7463 68.8806C70.0669 69.0963 70.4683 69.2005 70.9438 69.2005V69.0005C70.4972 69.0005 70.1375 68.9028 69.858 68.7147L69.7463 68.8806ZM70.9438 69.2005C71.4217 69.2005 71.8222 69.0964 72.1378 68.8802L72.0248 68.7152C71.7511 68.9027 71.3933 69.0005 70.9438 69.0005V69.2005ZM72.1375 68.8804C72.4535 68.6658 72.6851 68.3621 72.8335 67.9741L72.6467 67.9027C72.5113 68.2567 72.3038 68.5258 72.0251 68.7149L72.1375 68.8804ZM72.8335 67.9741C72.9807 67.589 73.0528 67.1372 73.0528 66.6208H72.8528C72.8528 67.1192 72.7831 67.5458 72.6467 67.9027L72.8335 67.9741ZM73.0528 66.6208C73.0528 65.8361 72.888 65.2093 72.546 64.7523L72.3859 64.8722C72.6931 65.2826 72.8528 65.8615 72.8528 66.6208H73.0528ZM72.5464 64.7529C72.2008 64.2843 71.6633 64.0576 70.956 64.0576V64.2576C71.6182 64.2576 72.0873 64.4673 72.3854 64.8716L72.5464 64.7529ZM70.956 64.0576C70.4782 64.0576 70.0756 64.1602 69.755 64.3729L69.8656 64.5396C70.1452 64.3541 70.5064 64.2576 70.956 64.2576V64.0576ZM69.755 64.3729C69.4364 64.5844 69.2005 64.8851 69.0464 65.2702L69.2321 65.3445C69.3727 64.9931 69.5842 64.7264 69.8656 64.5396L69.755 64.3729ZM69.0463 65.2706C68.8959 65.6507 68.8224 66.1017 68.8224 66.6208H69.0224C69.0224 66.1197 69.0935 65.6951 69.2323 65.3441L69.0463 65.2706ZM79.6961 69.6201V69.7201H79.7961V69.6201H79.6961ZM78.8941 69.6201L78.8102 69.6746L78.8398 69.7201H78.8941V69.6201ZM75.633 64.5954L75.7169 64.5409L75.6873 64.4954H75.633V64.5954ZM75.6002 64.5954V64.4954H75.4939L75.5004 64.6015L75.6002 64.5954ZM75.6289 65.0537L75.5291 65.06L75.5291 65.0601L75.6289 65.0537ZM75.6534 65.5979L75.5535 65.6007L75.5535 65.6022L75.6534 65.5979ZM75.6657 69.6201V69.7201H75.7657V69.6201H75.6657ZM75.0192 69.6201H74.9192V69.7201H75.0192V69.6201ZM75.0192 63.6379V63.5379H74.9192V63.6379H75.0192ZM75.8171 63.6379L75.901 63.5835L75.8714 63.5379H75.8171V63.6379ZM79.066 68.6463L78.9821 68.7007L79.0117 68.7463H79.066V68.6463ZM79.0946 68.6463V68.7463H79.2005L79.1945 68.6406L79.0946 68.6463ZM79.0742 68.2412L78.9743 68.2458L78.9743 68.2459L79.0742 68.2412ZM79.0496 67.6724L78.9496 67.6751L78.9497 67.6765L79.0496 67.6724ZM79.0414 63.6379V63.5379H78.9414V63.6379H79.0414ZM79.6961 63.6379H79.7961V63.5379H79.6961V63.6379ZM79.6961 69.5201H78.8941V69.7201H79.6961V69.5201ZM78.978 69.5657L75.7169 64.5409L75.5491 64.6498L78.8102 69.6746L78.978 69.5657ZM75.633 64.4954H75.6002V64.6954H75.633V64.4954ZM75.5004 64.6015C75.5086 64.7353 75.5182 64.8881 75.5291 65.06L75.7287 65.0473C75.7178 64.8755 75.7082 64.7229 75.7 64.5893L75.5004 64.6015ZM75.5291 65.0601C75.5399 65.2279 75.548 65.4081 75.5535 65.6007L75.7534 65.5951C75.7479 65.4003 75.7397 65.2177 75.7287 65.0472L75.5291 65.0601ZM75.5535 65.6022C75.5616 65.7916 75.5657 65.9852 75.5657 66.183H75.7657C75.7657 65.9825 75.7616 65.786 75.7533 65.5936L75.5535 65.6022ZM75.5657 66.183V69.6201H75.7657V66.183H75.5657ZM75.6657 69.5201H75.0192V69.7201H75.6657V69.5201ZM75.1192 69.6201V63.6379H74.9192V69.6201H75.1192ZM75.0192 63.7379H75.8171V63.5379H75.0192V63.7379ZM75.7332 63.6923L78.9821 68.7007L79.1499 68.5918L75.901 63.5835L75.7332 63.6923ZM79.066 68.7463H79.0946V68.5463H79.066V68.7463ZM79.1945 68.6406C79.189 68.5456 79.1822 68.411 79.1741 68.2365L78.9743 68.2459C78.9825 68.4206 78.9893 68.556 78.9948 68.652L79.1945 68.6406ZM79.1741 68.2366C79.1659 68.0595 79.1577 67.8701 79.1495 67.6684L78.9497 67.6765C78.9579 67.8785 78.9661 68.0683 78.9743 68.2458L79.1741 68.2366ZM79.1496 67.6698C79.1441 67.4659 79.1414 67.2772 79.1414 67.1037H78.9414C78.9414 67.2793 78.9442 67.4698 78.9497 67.6751L79.1496 67.6698ZM79.1414 67.1037V63.6379H78.9414V67.1037H79.1414ZM79.0414 63.7379H79.6961V63.5379H79.0414V63.7379ZM79.5961 63.6379V69.6201H79.7961V63.6379H79.5961Z" fill="white"/>
<path d="M68.1401 77.7499C67.2976 77.7519 66.4745 78.0037 65.7751 78.4734C65.0756 78.9432 64.5312 79.6098 64.2106 80.3889C63.89 81.1681 63.8076 82.0248 63.9739 82.8508C64.1402 83.6768 64.5477 84.4349 65.1449 85.0293C65.7421 85.6236 66.5021 86.0276 67.3288 86.19C68.1556 86.3524 69.0119 86.2661 69.7896 85.9418C70.5672 85.6175 71.2313 85.07 71.6977 84.3683C72.1642 83.6667 72.4121 82.8425 72.4101 81.9999C72.4183 81.4379 72.3132 80.8799 72.1013 80.3593C71.8893 79.8386 71.5748 79.366 71.1764 78.9694C70.7779 78.5729 70.3038 78.2606 69.7822 78.051C69.2606 77.8415 68.7021 77.7391 68.1401 77.7499ZM68.1401 84.5799C67.6237 84.616 67.1083 84.496 66.6611 84.2353C66.2138 83.9747 65.8553 83.5855 65.6321 83.1184C65.409 82.6512 65.3315 82.1278 65.4098 81.6161C65.4881 81.1043 65.7185 80.628 66.0711 80.249C66.4237 79.8699 66.8821 79.6057 67.3869 79.4907C67.8916 79.3757 68.4193 79.4152 68.9013 79.604C69.3833 79.7929 69.7973 80.1223 70.0896 80.5496C70.3819 80.9769 70.5388 81.4822 70.5401 81.9999C70.5562 82.3279 70.5065 82.6559 70.3938 82.9643C70.2812 83.2728 70.1079 83.5556 69.8842 83.7961C69.6606 84.0366 69.391 84.2298 69.0914 84.3644C68.7919 84.499 68.4684 84.5723 68.1401 84.5799ZM58.8201 77.7499C57.9776 77.7519 57.1545 78.0037 56.4551 78.4734C55.7556 78.9432 55.2112 79.6098 54.8906 80.3889C54.57 81.1681 54.4876 82.0248 54.6539 82.8508C54.8202 83.6768 55.2277 84.4349 55.8249 85.0293C56.4221 85.6236 57.1821 86.0276 58.0088 86.19C58.8356 86.3524 59.6919 86.2661 60.4696 85.9418C61.2472 85.6175 61.9113 85.07 62.3777 84.3683C62.8442 83.6667 63.0921 82.8425 63.0901 81.9999C63.0982 81.4379 62.9932 80.8799 62.7813 80.3593C62.5693 79.8386 62.2548 79.366 61.8564 78.9694C61.4579 78.5729 60.9838 78.2606 60.4622 78.051C59.9406 77.8415 59.3821 77.7391 58.8201 77.7499ZM58.8201 84.5799C58.3037 84.616 57.7883 84.496 57.3411 84.2353C56.8938 83.9747 56.5353 83.5855 56.3121 83.1184C56.089 82.6512 56.0115 82.1278 56.0898 81.6161C56.1681 81.1043 56.3985 80.628 56.7511 80.249C57.1037 79.8699 57.5621 79.6057 58.0669 79.4907C58.5716 79.3757 59.0993 79.4152 59.5813 79.604C60.0633 79.7929 60.4773 80.1223 60.7696 80.5496C61.0619 80.9769 61.2188 81.4822 61.2201 81.9999C61.2362 82.3279 61.1865 82.6559 61.0738 82.9643C60.9612 83.2728 60.7879 83.5556 60.5642 83.7961C60.3406 84.0366 60.071 84.2298 59.7714 84.3644C59.4719 84.499 59.1484 84.5723 58.8201 84.5799ZM47.7401 79.0599V80.8599H52.0601C51.9924 81.7077 51.6399 82.5077 51.0601 83.1299C50.6268 83.5714 50.1056 83.9171 49.5302 84.1444C48.9549 84.3718 48.3382 84.4759 47.7201 84.4499C46.4471 84.4499 45.2262 83.9442 44.326 83.044C43.4258 82.1439 42.9201 80.923 42.9201 79.6499C42.9201 78.3769 43.4258 77.156 44.326 76.2558C45.2262 75.3556 46.4471 74.8499 47.7201 74.8499C48.9405 74.8318 50.119 75.2952 51.0001 76.1399L52.2701 74.8699C51.6741 74.2804 50.9664 73.8158 50.1886 73.5033C49.4107 73.1908 48.5783 73.0366 47.7401 73.0499C46.8511 73.0153 45.9643 73.1605 45.1327 73.4769C44.3012 73.7932 43.5421 74.2742 42.9009 74.8909C42.2596 75.5077 41.7495 76.2475 41.4011 77.0661C41.0527 77.8847 40.873 78.7652 40.873 79.6549C40.873 80.5446 41.0527 81.4251 41.4011 82.2437C41.7495 83.0623 42.2596 83.8022 42.9009 84.4189C43.5421 85.0357 44.3012 85.5166 45.1327 85.833C45.9643 86.1493 46.8511 86.2945 47.7401 86.2599C48.5955 86.2941 49.4485 86.1469 50.243 85.8281C51.0375 85.5092 51.7556 85.0259 52.3501 84.4099C53.4002 83.2563 53.9598 81.7391 53.9101 80.1799C53.9137 79.8046 53.8836 79.4298 53.8201 79.0599H47.7401ZM93.0501 80.4599C92.7893 79.6927 92.3016 79.0227 91.6516 78.5388C91.0016 78.0548 90.2199 77.7797 89.4101 77.7499C88.8631 77.7489 88.3217 77.86 87.8193 78.0765C87.317 78.2929 86.8644 78.6101 86.4895 79.0085C86.1146 79.4068 85.8254 79.8778 85.6397 80.3923C85.4541 80.9068 85.3759 81.454 85.4101 81.9999C85.4016 82.9128 85.6885 83.8039 86.2282 84.5402C86.7679 85.2765 87.5313 85.8184 88.4044 86.0851C89.2774 86.3517 90.2134 86.3288 91.0723 86.0196C91.9313 85.7105 92.6672 85.1318 93.1701 84.3699L91.7201 83.3699C91.5039 83.7302 91.1974 84.0277 90.8307 84.2329C90.4641 84.4382 90.0502 84.544 89.6301 84.5399C89.1967 84.5578 88.768 84.4442 88.4003 84.214C88.0327 83.9837 87.7432 83.6477 87.5701 83.2499L93.2601 80.8999L93.0501 80.4599ZM87.2501 81.8799C87.2298 81.5693 87.2717 81.2578 87.3734 80.9635C87.475 80.6693 87.6343 80.3983 87.842 80.1664C88.0497 79.9346 88.3015 79.7464 88.5828 79.6131C88.8641 79.4798 89.1691 79.4039 89.4801 79.3899C89.8023 79.3703 90.1231 79.4461 90.4024 79.608C90.6817 79.7699 90.907 80.0106 91.0501 80.2999L87.2501 81.8799ZM82.6301 85.9999H84.5001V73.4999H82.6301V85.9999ZM79.5701 78.6999H79.5001C79.2207 78.3818 78.876 78.1277 78.4894 77.9551C78.1028 77.7825 77.6835 77.6955 77.2601 77.6999C76.1673 77.7529 75.1367 78.2243 74.3821 79.0165C73.6274 79.8087 73.2064 80.8608 73.2064 81.9549C73.2064 83.049 73.6274 84.1012 74.3821 84.8933C75.1367 85.6855 76.1673 86.1569 77.2601 86.2099C77.6841 86.2184 78.1047 86.1332 78.4919 85.9603C78.8791 85.7875 79.2234 85.5312 79.5001 85.2099H79.5701V85.8199C79.5701 87.4499 78.7001 88.3199 77.3001 88.3199C76.8324 88.3096 76.3783 88.1606 75.9955 87.8918C75.6127 87.6229 75.3185 87.2464 75.1501 86.8099L73.5301 87.4799C73.8296 88.2322 74.3504 88.8758 75.0235 89.3258C75.6966 89.7757 76.4905 90.0108 77.3001 89.9999C79.4901 89.9999 81.3001 88.7099 81.3001 85.5699V77.9999H79.5701V78.6999ZM77.4201 84.5799C76.7649 84.5391 76.1499 84.25 75.7004 83.7716C75.2509 83.2932 75.0006 82.6614 75.0006 82.0049C75.0006 81.3485 75.2509 80.7167 75.7004 80.2383C76.1499 79.7598 76.7649 79.4708 77.4201 79.4299C77.7403 79.4437 78.0545 79.5218 78.344 79.6596C78.6334 79.7973 78.8922 79.9918 79.1049 80.2316C79.3176 80.4714 79.4799 80.7515 79.5822 81.0553C79.6844 81.3591 79.7245 81.6803 79.7001 81.9999C79.7274 82.3206 79.6893 82.6435 79.5883 82.9491C79.4872 83.2546 79.3252 83.5365 79.1121 83.7777C78.8989 84.0189 78.6391 84.2143 78.3483 84.3522C78.0575 84.4901 77.7417 84.5676 77.4201 84.5799ZM101.81 73.4999H97.3301V85.9999H99.2001V81.2599H101.81C102.343 81.2982 102.878 81.2263 103.382 81.0487C103.886 80.871 104.348 80.5915 104.739 80.2274C105.13 79.8634 105.442 79.4227 105.655 78.9328C105.869 78.4428 105.979 77.9142 105.979 77.3799C105.979 76.8456 105.869 76.317 105.655 75.8271C105.442 75.3372 105.13 74.8965 104.739 74.5324C104.348 74.1684 103.886 73.8888 103.382 73.7112C102.878 73.5336 102.343 73.4616 101.81 73.4999ZM101.81 79.4999H99.2001V75.2399H101.85C102.131 75.2399 102.409 75.2953 102.669 75.4028C102.929 75.5104 103.165 75.668 103.363 75.8667C103.562 76.0654 103.72 76.3013 103.827 76.561C103.935 76.8206 103.99 77.0989 103.99 77.3799C103.99 77.661 103.935 77.9392 103.827 78.1989C103.72 78.4585 103.562 78.6944 103.363 78.8931C103.165 79.0918 102.929 79.2495 102.669 79.357C102.409 79.4646 102.131 79.5199 101.85 79.5199L101.81 79.4999ZM113.35 77.7099C112.669 77.6679 111.991 77.8265 111.399 78.1659C110.807 78.5054 110.328 79.0109 110.02 79.6199L111.67 80.3099C111.837 80.0093 112.087 79.7634 112.39 79.602C112.694 79.4405 113.038 79.3703 113.38 79.3999C113.617 79.3722 113.858 79.392 114.088 79.4582C114.317 79.5245 114.531 79.6358 114.718 79.7856C114.904 79.9355 115.058 80.1209 115.172 80.3311C115.286 80.5413 115.356 80.7721 115.38 81.0099V81.1299C114.779 80.8138 114.109 80.6491 113.43 80.6499C111.65 80.6499 109.83 81.6499 109.83 83.4699C109.848 83.8568 109.943 84.2361 110.11 84.5855C110.277 84.9348 110.513 85.247 110.803 85.5035C111.093 85.7601 111.432 85.9557 111.799 86.0787C112.166 86.2018 112.554 86.2498 112.94 86.2199C113.409 86.2459 113.877 86.1466 114.295 85.9322C114.714 85.7178 115.067 85.3961 115.32 84.9999H115.38V85.9999H117.18V81.1899C117.18 78.9999 115.52 77.7299 113.39 77.7299L113.35 77.7099ZM113.12 84.5599C112.51 84.5599 111.66 84.2499 111.66 83.4999C111.66 82.4999 112.72 82.1599 113.66 82.1599C114.254 82.1453 114.841 82.2903 115.36 82.5799C115.297 83.123 115.04 83.6249 114.635 83.9926C114.231 84.3604 113.707 84.569 113.16 84.5799L113.12 84.5599ZM123.74 77.9999L121.6 83.4199H121.54L119.32 77.9999H117.32L120.65 85.5799L118.75 89.7899H120.7L125.82 77.9999H123.74ZM106.94 85.9999H108.8V73.4999H106.94V85.9999Z" fill="white"/>
<path d="M20.7198 75.4199L10.0698 86.7199C10.1862 87.1473 10.3992 87.5423 10.6925 87.8742C10.9857 88.2062 11.3514 88.4663 11.7612 88.6345C12.1709 88.8026 12.6139 88.8744 13.0558 88.8441C13.4977 88.8138 13.9268 88.6824 14.3098 88.4599L26.3098 81.5399L20.7198 75.4199Z" fill="#EA4335"/>
<path d="M31.4902 73.5L26.3102 70.5L20.4902 75.69L26.3302 81.54L31.4802 78.54C31.938 78.2948 32.3207 77.93 32.5875 77.4845C32.8543 77.0389 32.9952 76.5293 32.9952 76.01C32.9952 75.4907 32.8543 74.9811 32.5875 74.5355C32.3207 74.09 31.938 73.7252 31.4802 73.48L31.4902 73.5Z" fill="#FBBC04"/>
<path d="M10.07 65.2803C10.0172 65.5165 9.99366 65.7583 10 66.0003V86.0003C10.0018 86.2502 10.0354 86.4989 10.1 86.7403L21.1 75.7403L10.07 65.2803Z" fill="#4285F4"/>
<path d="M20.8 75.9996L26.31 70.4896L14.31 63.5496C13.8592 63.2816 13.3445 63.14 12.82 63.1396C12.1874 63.1415 11.5728 63.3508 11.0706 63.7356C10.5685 64.1204 10.2064 64.6593 10.04 65.2696L20.8 75.9996Z" fill="#34A853"/>
</svg>
