<svg width="252" height="50" viewBox="0 0 252 50" fill="none" xmlns="http://www.w3.org/2000/svg">
<g clip-path="url(#clip0_2370_52185)">
<path d="M29.5741 33.246C28.5034 34.3171 27.4262 35.3822 26.3543 36.4527C25.58 37.2259 24.8127 38.0067 24.0377 38.7798C23.124 39.6905 22.2032 40.5935 21.2913 41.5059C20.3581 42.4389 19.438 43.386 18.5007 44.3137C17.7816 45.0263 17.3295 45.8294 17.3765 46.8882C17.4136 47.7107 17.3695 48.5385 17.3624 49.3651C17.3615 49.5109 17.3779 49.6562 17.4112 49.7981C17.4172 49.8241 17.4291 49.8484 17.4459 49.8692C17.4617 49.8889 17.4817 49.905 17.5043 49.9164C17.5269 49.9277 17.5517 49.9341 17.577 49.935L18.6166 49.9685L19.3809 49.9767H20.6715C20.8274 49.972 20.9817 49.9445 21.1296 49.8951L21.8663 49.6483L21.8557 49.6518H21.861L22.1009 49.5343L22.5242 49.2312H22.5448L22.5531 49.2124C22.6038 49.187 22.6515 49.1561 22.6953 49.1201L22.7089 49.109C23.2122 48.6213 23.7167 48.1349 24.2141 47.6402C25.2748 46.5862 26.3332 45.5286 27.3892 44.4676C27.9889 43.866 28.5816 43.2567 29.1772 42.651H29.1948L29.2007 42.6339C29.3283 42.5164 29.4612 42.4066 29.5829 42.2814C30.3128 41.5431 31.0411 40.8032 31.7678 40.0618H31.7831V40.0471L31.8454 39.9884L31.8501 39.9843C31.9401 39.8902 32.0307 39.7968 32.1212 39.7028L32.1406 39.6928L32.8462 38.9843L33.5388 38.2793L33.6735 38.1618L34.7065 37.1236H34.7242V37.106L35.0099 36.8123L35.0823 36.7535L35.7196 36.1072L35.7849 36.0485L36.5798 35.2589L37.647 34.1884L37.7287 34.112L37.998 33.8283H38.0145L38.0198 33.8124L39.4186 32.4024L39.4933 32.3389L39.5444 32.2907L39.5509 32.2837L40.5845 31.2461L40.6686 31.1703C40.7598 31.0769 40.8503 30.9829 40.9409 30.8895L40.9573 30.8789L41.1719 30.6533L41.2096 30.6181C41.3066 30.5376 41.4101 30.4636 41.4983 30.3748C41.9198 29.9518 42.3338 29.5224 42.7553 29.1005C43.9376 27.9173 45.1212 26.7362 46.3061 25.5572C47.1164 24.7494 47.936 23.9509 48.741 23.1378C49.0614 22.8141 49.3536 22.4616 49.6588 22.1226L49.6758 22.1161V22.0985L49.9663 21.716C50.2996 21.3252 50.4844 20.8295 50.4884 20.316C50.5155 19.2949 50.4931 18.2667 50.5008 17.2386C50.5008 16.9936 50.3996 16.9119 50.1656 16.9137C49.0879 16.9225 48.0089 16.8955 46.9317 16.9401C46.5554 16.956 46.1586 17.0876 45.8193 17.2597C44.9479 17.7027 44.3611 18.49 43.6738 19.1527C42.8724 19.9259 42.1021 20.7314 41.3142 21.5192C40.2641 22.5691 39.2081 23.6137 38.1574 24.663M45.4342 18.3707C45.4636 18.3355 45.493 18.2979 45.5194 18.2614C45.4906 18.2949 45.4606 18.3325 45.4342 18.3678V18.3707ZM44.7768 18.9582C44.7654 18.9735 44.7512 18.9864 44.7351 18.9964C44.7504 18.9863 44.7635 18.9734 44.7739 18.9582H44.7768ZM49.7917 21.6843L49.7329 21.6479C49.7507 21.6616 49.7693 21.6741 49.7887 21.6855L49.7917 21.6843ZM44.2018 19.1885C44.2218 19.1498 44.2412 19.1104 44.2606 19.071C44.2412 19.1098 44.2218 19.1492 44.2018 19.1885C44.1318 19.2373 44.0542 19.279 43.9866 19.3301C44.0512 19.2802 44.1289 19.2385 44.1988 19.1897L44.2018 19.1885ZM29.4436 34.1114C29.5982 33.8929 29.7281 33.6508 29.9139 33.4605C29.7305 33.6508 29.6005 33.8929 29.4436 34.1126C29.5394 34.1226 29.6346 34.132 29.7264 34.1402L29.4441 34.1138C29.373 34.1332 29.2854 34.1355 29.2272 34.1725C29.2813 34.1373 29.3689 34.1349 29.44 34.1138L29.4436 34.1114ZM27.9736 35.4627C27.9936 35.404 28.013 35.3452 28.0324 35.2865C28.0124 35.3452 27.993 35.404 27.9736 35.4627C27.9289 35.4927 27.8825 35.5215 27.836 35.5473C27.8789 35.5227 27.9254 35.4956 27.9695 35.4657L27.9736 35.4627ZM24.6809 38.7528C24.6133 38.7963 24.5416 38.8357 24.4722 38.8774C24.5375 38.8392 24.6092 38.7998 24.6768 38.7563L24.6809 38.7528ZM17.8604 45.803C17.8898 45.7443 17.9192 45.6855 17.948 45.6268C17.9186 45.6861 17.8886 45.7448 17.8598 45.8036L17.8604 45.803ZM30.7959 40.8091L30.5248 41.137L30.7947 40.8132L30.7959 40.8091ZM35.7196 35.9116C35.7288 35.9129 35.7379 35.9151 35.7467 35.9181C35.7377 35.9161 35.7287 35.9147 35.7196 35.9139V35.9116ZM36.2617 35.4052C36.2453 35.4087 36.2288 35.4116 36.2118 35.414C36.1947 35.4163 36.1618 35.4228 36.1383 35.4287C36.1618 35.4228 36.1871 35.4187 36.2118 35.414C36.2365 35.4093 36.2447 35.4093 36.2611 35.4057L36.2617 35.4052ZM37.7317 33.7442C37.7635 33.7161 37.7973 33.6904 37.8328 33.6673C37.7975 33.6914 37.7639 33.7179 37.7323 33.7466L37.7317 33.7442ZM43.2587 28.4131C43.2781 28.3937 43.2975 28.3738 43.3175 28.3544C43.2981 28.3755 43.2786 28.3955 43.2587 28.4131ZM45.0814 26.5918C45.1008 26.5718 45.1208 26.5525 45.1402 26.5331C45.1214 26.5542 45.1014 26.5736 45.0814 26.5918ZM50.1139 20.8342C50.1492 20.6797 50.3044 20.5651 50.3708 20.4229C50.305 20.5668 50.1497 20.6814 50.1145 20.8342H50.1139Z" fill="#006A6A"/>
<path d="M50.5802 24.3058L50.5619 24.1995C50.5599 24.1876 50.5554 24.1763 50.5488 24.1662C50.5423 24.1561 50.5337 24.1474 50.5237 24.1407C50.5061 24.128 50.4846 24.1221 50.463 24.124C50.4413 24.126 50.4212 24.1356 50.4061 24.1513C46.1355 28.4366 41.857 32.7147 37.5706 36.9856C33.3619 41.1904 29.1549 45.3959 24.8973 49.6548C24.8704 49.6815 24.852 49.7157 24.8444 49.7529C24.8369 49.7901 24.8405 49.8288 24.8549 49.8639C24.8693 49.899 24.8938 49.9291 24.9254 49.9504C24.9569 49.9716 24.994 49.983 25.032 49.9832C26.7565 49.9902 28.4811 50.0131 30.2062 49.9896C30.8506 49.9797 31.4927 49.9115 32.1248 49.7858C33.4327 49.5336 34.6372 48.9015 35.5874 47.9686C37.5706 46.0357 39.5192 44.0675 41.4783 42.1099C43.7767 39.8139 46.0816 37.5231 48.3653 35.2124C49.7811 33.7795 50.5349 32.0399 50.5714 30.02C50.6025 28.1264 50.5808 26.2329 50.5825 24.3387C50.5826 24.3277 50.5819 24.3167 50.5802 24.3058Z" fill="#04A3A3"/>
<path d="M43.0741 16.9248C41.1144 16.9289 39.1546 16.9283 37.1943 16.9413C35.3845 16.953 33.8199 17.6022 32.5358 18.863C30.3485 21.0104 28.1848 23.1836 26.0198 25.3521C23.8825 27.4925 21.7205 29.6116 19.6297 31.7972C18.4055 33.0774 17.697 34.6678 17.6112 36.4438C17.52 38.3879 17.5706 40.3391 17.5618 42.2873C17.562 42.3346 17.5648 42.3819 17.57 42.4289C17.573 42.4587 17.5843 42.4871 17.6028 42.5108C17.6212 42.5345 17.646 42.5524 17.6743 42.5626C17.7025 42.5727 17.7331 42.5746 17.7624 42.5681C17.7917 42.5616 17.8186 42.547 17.8399 42.5258L43.1846 17.1927C43.2066 17.1708 43.2216 17.1429 43.2277 17.1125C43.2338 17.0821 43.2307 17.0505 43.2189 17.0219C43.207 16.9932 43.187 16.9687 43.1612 16.9514C43.1354 16.9341 43.1051 16.9249 43.0741 16.9248Z" fill="#04A3A3"/>
<path d="M17.9798 30.3203C17.5864 29.9255 17.1983 29.5248 16.8038 29.1306C15.5103 27.8345 14.2167 26.5395 12.9232 25.2454L8.68444 21.0117C7.58688 19.9225 6.48384 18.8389 5.37531 17.761C4.82849 17.2322 4.17877 16.9314 3.39441 16.9385C2.36604 16.9461 1.33649 16.9285 0.308123 16.9144C0.0958637 16.9114 -0.00174046 16.9955 2.34736e-05 17.2081C0.0106071 18.2457 -0.00409236 19.2838 0.037066 20.322C0.062937 20.98 0.278136 21.5986 0.748518 22.0845C1.88723 23.2572 3.03379 24.4219 4.18818 25.5785C5.96387 27.3604 7.75014 29.1312 9.52701 30.9114C11.463 32.8513 13.3967 34.7937 15.328 36.7383C15.356 36.7662 15.3914 36.7853 15.4301 36.7935C15.4687 36.8016 15.5089 36.7984 15.5458 36.7843C15.5826 36.7701 15.6146 36.7456 15.6378 36.7137C15.6611 36.6817 15.6745 36.6438 15.6767 36.6044C15.7943 34.4141 16.4598 32.4424 17.9845 30.8121C18.1415 30.6399 18.1426 30.4842 17.9798 30.3203Z" fill="#006A6A"/>
<path d="M15.3162 39.5849C15.0695 39.1991 14.787 38.8374 14.4725 38.5044C12.5645 36.5762 10.6406 34.665 8.72324 32.7468C7.35129 31.3759 5.9817 30.0035 4.61446 28.6295C3.19234 27.2026 1.77022 25.7741 0.348096 24.3441C0.346233 24.3419 0.344055 24.3399 0.341628 24.3383C0.277522 24.2837 0.210597 24.2325 0.141128 24.1849C0.129099 24.1766 0.11523 24.1713 0.100709 24.1695C0.0861887 24.1677 0.0714486 24.1695 0.0577511 24.1746C0.0440535 24.1797 0.0318065 24.1881 0.0220584 24.199C0.0123103 24.2099 0.00535157 24.223 0.0017779 24.2372C0.000628071 24.2452 0.000628071 24.2533 0.0017779 24.2613C0.0100096 26.1372 0.0258849 28.0132 0.0276489 29.8891C0.0276489 31.9812 0.777907 33.7638 2.24314 35.2443C3.64429 36.6614 5.06543 38.0673 6.47893 39.4815C8.13546 41.1347 9.791 42.7884 11.4456 44.4425C12.7174 45.7185 13.9803 47.0029 15.2492 48.2813C15.2887 48.3204 15.3305 48.3571 15.3744 48.3912C15.3992 48.4112 15.4291 48.4238 15.4607 48.4275C15.4924 48.4312 15.5244 48.4258 15.5531 48.412C15.5818 48.3982 15.606 48.3766 15.6229 48.3496C15.6398 48.3226 15.6486 48.2914 15.6484 48.2596C15.6378 45.792 15.6231 43.3244 15.6173 40.8568C15.6161 40.4015 15.5673 39.9609 15.3162 39.5849Z" fill="#04A3A3"/>
<path d="M8.70677 18.4301C12.2248 21.9466 15.7413 25.4646 19.2562 28.9843C19.4914 29.2193 19.5426 29.2193 19.7748 28.9784C20.3746 28.3615 20.9702 27.7393 21.5793 27.1312C22.3061 26.4062 23.0403 25.6879 23.7819 24.9762C23.9701 24.7953 23.9953 24.6566 23.7907 24.4704C23.5161 24.2201 23.2615 23.9469 23.0005 23.6849C21.3712 22.0627 19.7666 20.4136 18.1038 18.8285C16.9943 17.7709 15.6502 17.1006 14.1015 16.9719C12.9126 16.8732 11.716 16.9208 10.523 16.8708C9.55346 16.8708 8.58271 16.8708 7.61372 16.8761C7.60432 16.8756 7.5949 16.8756 7.5855 16.8761C7.54996 16.8825 7.51665 16.8979 7.48874 16.9208C7.46084 16.9436 7.43928 16.9733 7.42613 17.0069C7.41298 17.0405 7.40867 17.0769 7.41361 17.1126C7.41856 17.1484 7.43259 17.1823 7.45438 17.211C7.46303 17.2228 7.47267 17.2338 7.48319 17.2439C7.88537 17.6464 8.30518 18.0288 8.70677 18.4301Z" fill="#04A3A3"/>
<path d="M14.3314 15.056C16.3129 15.2998 18.0327 16.0876 19.4468 17.5124C19.5644 17.6299 19.6784 17.7444 19.7996 17.8649C19.8362 17.901 19.8826 17.9255 19.9331 17.9353C19.9836 17.9451 20.0359 17.9398 20.0834 17.9201C20.1309 17.9003 20.1715 17.8669 20.2001 17.8242C20.2287 17.7814 20.244 17.7312 20.2441 17.6798V5.28321C20.2452 5.24822 20.236 5.21367 20.2174 5.18397C20.1988 5.15427 20.1718 5.13077 20.1399 5.11646C20.1079 5.10215 20.0724 5.09769 20.0378 5.10363C20.0033 5.10958 19.9713 5.12567 19.946 5.14985C19.4962 5.58579 19.0469 6.02172 18.6071 6.46765C17.6593 7.42706 16.6898 8.36709 15.7802 9.36175C14.4425 10.8235 13.8722 12.5931 13.8745 14.5554C13.8751 14.9978 13.8875 15.0013 14.3314 15.056Z" fill="#006A6A"/>
<path d="M22.0797 8.35769C22.0879 9.45282 22.092 10.5568 22.0932 11.6525C22.0932 12.9397 22.0662 14.2041 22.0797 15.4919C22.0873 16.2157 22.0967 16.9548 22.0797 17.678C22.0656 17.9975 22.0709 18.3175 22.0956 18.6363C22.1079 18.7655 22.1132 18.8948 22.1167 19.0246C22.135 19.7103 22.4848 20.3172 22.9622 20.823C23.6607 21.5639 24.3734 22.2889 25.0954 23.0086C25.1806 23.0913 25.2784 23.16 25.3853 23.2118C25.4079 23.2235 25.4332 23.2288 25.4585 23.2272C25.4839 23.2257 25.5083 23.2173 25.5293 23.203C25.5359 23.1986 25.5412 23.1925 25.5446 23.1854L25.594 23.1361L25.7251 23.0103C25.7792 22.9575 25.7516 22.9516 25.801 22.8958C25.958 22.7119 26.7941 21.9334 26.9211 21.8065C28.4245 20.2337 27.0975 21.5498 27.6131 21.0527C27.6245 21.042 27.6353 21.0306 27.6455 21.0187C27.6643 20.9957 27.8166 20.7449 27.8313 20.7184C27.9459 20.5116 27.9124 20.5204 28.0518 20.3313C28.3316 19.9523 28.518 19.658 28.518 19.215C28.5221 14.4167 28.384 9.48102 28.384 4.68277C28.384 4.33026 28.4169 3.97775 28.364 3.63406C28.264 2.98309 27.8995 2.45903 27.4456 1.99783C26.8276 1.37153 26.1996 0.754054 25.5758 0.131875C25.3947 -0.0490798 25.2406 -0.0443797 25.0543 0.149501C24.4128 0.809869 23.6349 1.43557 22.9963 2.0977C22.6941 2.41026 22.3249 2.80272 22.2084 3.23455C22.0168 3.94544 22.0597 4.66574 22.0667 5.39132C22.0756 6.38069 22.0726 7.3689 22.0797 8.35769Z" fill="#04A3A3"/>
<path d="M36.8244 14.3357C36.7944 12.374 36.1958 10.6138 34.8341 9.17376C33.9086 8.19437 32.9238 7.27021 31.9607 6.32607C31.5138 5.88719 31.0575 5.45889 30.6007 5.03001C30.5748 5.00686 30.5427 4.99184 30.5084 4.98683C30.4741 4.98183 30.439 4.98705 30.4076 5.00185C30.3762 5.01665 30.3499 5.04037 30.332 5.07004C30.314 5.09971 30.3052 5.13402 30.3067 5.16866L30.5089 17.5652C30.5102 17.6165 30.5265 17.6663 30.5559 17.7083C30.5853 17.7504 30.6264 17.7828 30.6742 17.8016C30.7219 17.8204 30.7742 17.8247 30.8243 17.8141C30.8745 17.8034 30.9205 17.7781 30.9564 17.7415C31.0769 17.6181 31.1916 17.5012 31.3051 17.3831C32.6903 15.9331 34.3955 15.1177 36.3752 14.8415C36.8179 14.7798 36.8303 14.7757 36.8244 14.3357Z" fill="#006A6A"/>
</g>
<path d="M68.5732 36.6481L71.6104 17.3901H63.8337L64.5346 13.1179H85.2612L84.5937 17.3901H76.8171L73.7465 36.6481H68.5732Z" fill="white"/>
<path d="M83.6203 36.6481L87.3585 13.1179H92.3983L90.9297 22.53C92.1313 20.7944 93.9224 19.9267 96.3033 19.9267C98.0833 19.9267 99.4406 20.4829 100.375 21.5955C101.332 22.708 101.621 24.4769 101.243 26.9023L99.7076 36.6481H94.6678L96.1698 27.0024C96.5258 24.8886 95.8471 23.8317 94.1338 23.8317C92.999 23.8317 92.0867 24.1988 91.397 24.9331C90.7072 25.6451 90.2622 26.6353 90.0619 27.9036L88.6601 36.6481H83.6203Z" fill="white"/>
<path d="M112.381 37.0153C110.668 37.0153 109.177 36.7037 107.909 36.0807C106.641 35.4354 105.662 34.5565 104.972 33.444C104.282 32.3092 103.937 30.9853 103.937 29.4722C103.937 27.6032 104.327 25.9566 105.105 24.5326C105.906 23.0863 106.997 21.9626 108.376 21.1616C109.778 20.3383 111.369 19.9267 113.149 19.9267C114.974 19.9267 116.431 20.3272 117.521 21.1282C118.612 21.907 119.368 22.9639 119.791 24.2989C120.214 25.6117 120.325 27.0692 120.125 28.6712L119.991 29.539H108.61C108.632 30.7183 109.01 31.6306 109.745 32.2758C110.479 32.9211 111.525 33.2437 112.882 33.2437C113.817 33.2437 114.718 33.1102 115.586 32.8432C116.476 32.5762 117.265 32.1868 117.955 31.6751L119.057 34.9793C118.256 35.6023 117.265 36.103 116.086 36.4812C114.907 36.8372 113.672 37.0153 112.381 37.0153ZM113.116 23.2643C111.914 23.2643 110.98 23.6314 110.312 24.3657C109.645 25.0777 109.2 25.9344 108.977 26.9357H116.253C116.32 25.8899 116.097 25.0221 115.586 24.3323C115.096 23.6203 114.273 23.2643 113.116 23.2643Z" fill="white"/>
<path d="M131.511 36.6481L135.249 13.1179H140.422L138.92 22.5634H149.834L151.37 13.1179H156.543L152.805 36.6481H147.632L149.167 26.8689H138.22L136.684 36.6481H131.511Z" fill="white"/>
<path d="M166.031 37.0153C164.318 37.0153 162.827 36.7037 161.559 36.0807C160.29 35.4354 159.311 34.5565 158.622 33.444C157.932 32.3092 157.587 30.9853 157.587 29.4722C157.587 27.6032 157.976 25.9566 158.755 24.5326C159.556 23.0863 160.646 21.9626 162.026 21.1616C163.428 20.3383 165.019 19.9267 166.799 19.9267C168.623 19.9267 170.081 20.3272 171.171 21.1282C172.261 21.907 173.018 22.9639 173.441 24.2989C173.863 25.6117 173.975 27.0692 173.774 28.6712L173.641 29.539H162.26C162.282 30.7183 162.66 31.6306 163.394 32.2758C164.129 32.9211 165.174 33.2437 166.532 33.2437C167.466 33.2437 168.367 33.1102 169.235 32.8432C170.125 32.5762 170.915 32.1868 171.605 31.6751L172.706 34.9793C171.905 35.6023 170.915 36.103 169.736 36.4812C168.556 36.8372 167.322 37.0153 166.031 37.0153ZM166.765 23.2643C165.564 23.2643 164.629 23.6314 163.962 24.3657C163.294 25.0777 162.849 25.9344 162.627 26.9357H169.903C169.969 25.8899 169.747 25.0221 169.235 24.3323C168.746 23.6203 167.922 23.2643 166.765 23.2643Z" fill="white"/>
<path d="M181.111 37.0153C180.088 37.0153 179.153 36.7816 178.308 36.3144C177.462 35.8248 176.795 35.1907 176.305 34.4119C175.816 33.6331 175.571 32.7876 175.571 31.8753C175.571 30.1398 176.305 28.8826 177.774 28.1038C179.265 27.3028 181.59 26.9023 184.749 26.9023H187.019L187.086 26.4684C187.241 25.5561 187.075 24.8552 186.585 24.3657C186.118 23.8762 185.317 23.6314 184.182 23.6314C182.224 23.6314 180.333 24.1766 178.508 25.2668L177.473 21.8625C178.341 21.284 179.443 20.8167 180.778 20.4607C182.135 20.1047 183.503 19.9267 184.883 19.9267C186.752 19.9267 188.22 20.2715 189.288 20.9613C190.357 21.6511 191.08 22.5856 191.458 23.7649C191.836 24.922 191.903 26.2236 191.658 27.6699L190.256 36.6481H185.55L185.917 34.245C185.383 35.2018 184.694 35.9027 183.848 36.3477C183.003 36.7927 182.09 37.0153 181.111 37.0153ZM182.813 33.6443C183.77 33.6443 184.571 33.355 185.217 32.7765C185.884 32.1757 186.296 31.3747 186.451 30.3734L186.618 29.5056H184.849C183.225 29.5056 182.079 29.6614 181.412 29.9729C180.744 30.2621 180.41 30.785 180.41 31.5416C180.41 32.2091 180.633 32.732 181.078 33.1102C181.545 33.4663 182.124 33.6443 182.813 33.6443Z" fill="white"/>
<path d="M200.257 37.0153C198.21 37.0153 196.742 36.459 195.852 35.3464C194.962 34.2117 194.683 32.5762 195.017 30.4401L197.754 13.1179H202.794L200.057 30.3734C199.812 32.0867 200.457 32.9434 201.993 32.9434C202.215 32.9434 202.449 32.9322 202.694 32.91C202.938 32.8877 203.183 32.8655 203.428 32.8432L202.76 36.6815C202.026 36.904 201.192 37.0153 200.257 37.0153Z" fill="white"/>
<path d="M213.879 37.0153C212.166 37.0153 210.675 36.7037 209.406 36.0807C208.138 35.4354 207.159 34.5565 206.469 33.444C205.78 32.3092 205.435 30.9853 205.435 29.4722C205.435 27.6032 205.824 25.9566 206.603 24.5326C207.404 23.0863 208.494 21.9626 209.874 21.1616C211.276 20.3383 212.866 19.9267 214.647 19.9267C216.471 19.9267 217.929 20.3272 219.019 21.1282C220.109 21.907 220.866 22.9639 221.288 24.2989C221.711 25.6117 221.822 27.0692 221.622 28.6712L221.489 29.539H210.107C210.13 30.7183 210.508 31.6306 211.242 32.2758C211.976 32.9211 213.022 33.2437 214.38 33.2437C215.314 33.2437 216.215 33.1102 217.083 32.8432C217.973 32.5762 218.763 32.1868 219.453 31.6751L220.554 34.9793C219.753 35.6023 218.763 36.103 217.584 36.4812C216.404 36.8372 215.169 37.0153 213.879 37.0153ZM214.613 23.2643C213.412 23.2643 212.477 23.6314 211.81 24.3657C211.142 25.0777 210.697 25.9344 210.475 26.9357H217.751C217.817 25.8899 217.595 25.0221 217.083 24.3323C216.593 23.6203 215.77 23.2643 214.613 23.2643Z" fill="white"/>
<path d="M223.285 36.6481L225.889 20.2604H230.828L230.361 23.064C230.873 22.1517 231.574 21.4286 232.464 20.8946C233.354 20.3383 234.411 20.0157 235.634 19.9267L237.17 19.8265L237.003 24.0653L233.799 24.3991C232.464 24.5326 231.496 24.922 230.895 25.5672C230.316 26.2125 229.927 27.1693 229.727 28.4376L228.425 36.6481H223.285Z" fill="white"/>
<path d="M243.852 37.0153C242.428 37.0153 241.082 36.8484 239.814 36.5146C238.546 36.1808 237.478 35.7025 236.61 35.0794L238.078 31.8419C238.879 32.376 239.792 32.7987 240.815 33.1102C241.839 33.3995 242.84 33.5441 243.819 33.5441C244.776 33.5441 245.488 33.3772 245.955 33.0435C246.445 32.7097 246.689 32.287 246.689 31.7752C246.689 31.0409 246.167 30.5737 245.121 30.3734L242.084 29.806C240.771 29.5835 239.758 29.1051 239.046 28.3708C238.334 27.6143 237.978 26.6686 237.978 25.5339C237.978 24.5326 238.268 23.6092 238.846 22.7636C239.447 21.8959 240.326 21.2061 241.483 20.6943C242.64 20.1825 244.064 19.9267 245.755 19.9267C246.801 19.9267 247.869 20.0824 248.959 20.3939C250.072 20.6832 251.028 21.1282 251.829 21.729L250.428 24.8997C249.693 24.3879 248.892 24.0097 248.025 23.7649C247.179 23.4979 246.333 23.3644 245.488 23.3644C244.487 23.3644 243.73 23.5424 243.218 23.8984C242.729 24.2544 242.484 24.7106 242.484 25.2668C242.484 25.5784 242.584 25.8565 242.784 26.1012C243.007 26.3238 243.363 26.4795 243.852 26.5685L246.856 27.1359C249.749 27.6699 251.195 29.094 251.195 31.4081C251.195 33.2104 250.517 34.601 249.159 35.5801C247.824 36.5369 246.055 37.0153 243.852 37.0153Z" fill="white"/>
<defs>
<clipPath id="clip0_2370_52185">
<rect width="50.5882" height="50" fill="white"/>
</clipPath>
</defs>
</svg>
