<svg width="16" height="16" viewBox="0 0 16 16" fill="none" xmlns="http://www.w3.org/2000/svg">
<path fill-rule="evenodd" clip-rule="evenodd" d="M3.64459 2.92805C3.83965 3.12351 3.83934 3.44009 3.64388 3.63515C2.52481 4.752 1.83333 6.29479 1.83333 8C1.83333 9.7252 2.54108 11.2841 3.68335 12.4039C3.88054 12.5973 3.88369 12.9138 3.69038 13.111C3.49707 13.3082 3.1805 13.3113 2.98331 13.118C1.65709 11.8179 0.833328 10.0047 0.833328 8C0.833328 6.01855 1.63813 4.22411 2.93748 2.92735C3.13294 2.73228 3.44952 2.73259 3.64459 2.92805ZM12.4109 2.97631C12.6081 2.78299 12.9247 2.78614 13.118 2.98333C14.3847 4.27551 15.1667 6.04695 15.1667 8C15.1667 9.97633 14.3661 11.7666 13.0727 13.0625C12.8776 13.258 12.561 13.2583 12.3656 13.0633C12.1701 12.8682 12.1698 12.5516 12.3649 12.3561C13.4788 11.24 14.1667 9.7008 14.1667 8C14.1667 6.31915 13.4948 4.7962 12.4039 3.68338C12.2106 3.48619 12.2137 3.16962 12.4109 2.97631ZM5.53948 4.99171C5.72817 5.19334 5.71768 5.50975 5.51605 5.69843C4.88344 6.29043 4.49999 7.10013 4.49999 7.98813C4.49999 8.88647 4.89246 9.70487 5.53837 10.2986C5.74167 10.4855 5.75498 10.8017 5.5681 11.0051C5.38123 11.2083 5.06492 11.2217 4.86162 11.0348C4.02644 10.2671 3.49999 9.18827 3.49999 7.98813C3.49999 6.802 4.01431 5.73419 4.83277 4.96828C5.03439 4.77959 5.3508 4.79009 5.53948 4.99171ZM10.4953 5.01706C10.6861 4.81751 11.0026 4.81047 11.2022 5.00135C12.0003 5.76476 12.5 6.81907 12.5 7.98813C12.5 9.1712 11.9883 10.2365 11.1736 11.002C10.9724 11.1911 10.6559 11.1813 10.4669 10.98C10.2778 10.7787 10.2877 10.4623 10.4889 10.2733C11.1185 9.68167 11.5 8.87387 11.5 7.98813C11.5 7.1128 11.1274 6.31364 10.5109 5.72399C10.3114 5.53312 10.3044 5.21661 10.4953 5.01706Z" fill="#0F0D13"/>
<path d="M9.1042 6.9674C9.7014 7.40587 10 7.62507 10 8C10 8.37493 9.7014 8.59413 9.1042 9.0326C8.9394 9.1536 8.77587 9.2676 8.62561 9.36253C8.49381 9.44587 8.34454 9.532 8.18994 9.6166C7.5942 9.94267 7.29627 10.1057 7.02914 9.9252C6.76194 9.74467 6.73767 9.3668 6.68914 8.61107C6.67541 8.39733 6.66667 8.1878 6.66667 8C6.66667 7.8122 6.67541 7.60267 6.68914 7.38893C6.73767 6.63318 6.76194 6.25531 7.02914 6.0748C7.29627 5.89429 7.5942 6.05733 8.18994 6.38339C8.34454 6.46799 8.49381 6.55415 8.62561 6.63746C8.77587 6.7324 8.9394 6.8464 9.1042 6.9674Z" fill="#0F0D13"/>
</svg>
