<svg width="32" height="32" viewBox="0 0 32 32" fill="none" xmlns="http://www.w3.org/2000/svg">
<path fill-rule="evenodd" clip-rule="evenodd" d="M10.6666 5.33333C10.6666 4.59733 11.2173 4 11.8973 4H20.1026C20.7826 4 21.3333 4.59733 21.3333 5.33333C21.3333 6.06933 20.7826 6.66667 20.1026 6.66667H11.8973C11.2173 6.66667 10.6666 6.06933 10.6666 5.33333ZM13.0373 28H18.9626C23.124 28 25.2053 28 26.7 27.0373C27.343 26.6239 27.8985 26.0879 28.3346 25.46C29.3333 24.02 29.3333 22.0133 29.3333 18C29.3333 13.9867 29.3333 11.9813 28.3333 10.54C27.8976 9.91215 27.3426 9.37619 26.7 8.96267C25.2053 8 23.124 8 18.9626 8H13.0373C8.87596 8 6.79463 8 5.29996 8.96267C4.65732 9.37622 4.10234 9.91218 3.66663 10.54C2.66663 11.98 2.66663 13.9867 2.66663 17.9973V18C2.66663 22.0133 2.66663 24.0187 3.66529 25.46C4.09729 26.084 4.65196 26.62 5.29996 27.0373C6.79463 28 8.87596 28 13.0373 28ZM10.444 18C10.444 15.04 12.932 12.6427 16 12.6427C19.068 12.6427 21.556 15.0413 21.556 18C21.556 20.9587 19.0666 23.3573 16 23.3573C12.932 23.3573 10.444 20.9573 10.444 18ZM12.6666 18C12.6666 16.224 14.16 14.7867 16 14.7867C17.84 14.7867 19.3333 16.2253 19.3333 18C19.3333 19.7747 17.84 21.2133 16 21.2133C14.16 21.2133 12.6666 19.7747 12.6666 18ZM24.148 12.6427C23.5346 12.6427 23.0373 13.1227 23.0373 13.7147C23.0373 14.3053 23.5346 14.7853 24.148 14.7853H24.8893C25.5026 14.7853 26 14.3053 26 13.7147C26 13.1227 25.5026 12.6427 24.8893 12.6427H24.148Z" fill="#006CF0"/>
</svg>
