<svg width="24" height="24" viewBox="0 0 24 24" fill="none" xmlns="http://www.w3.org/2000/svg">
<path fill-rule="evenodd" clip-rule="evenodd" d="M7.0525 0.072C8.3325 0.014 8.741 0 12 0C15.259 0 15.6675 0.014 16.9475 0.072C18.8985 0.161 20.611 0.639 21.986 2.014C23.3615 3.3895 23.839 5.1025 23.928 7.0525C23.986 8.3325 24 8.741 24 12C24 15.259 23.986 15.6675 23.928 16.9475C23.839 18.8985 23.361 20.611 21.986 21.986C20.6105 23.3615 18.897 23.839 16.9475 23.928C15.6675 23.986 15.259 24 12 24C8.741 24 8.3325 23.986 7.0525 23.928C5.1015 23.839 3.389 23.361 2.014 21.986C0.6385 20.6105 0.161 18.8975 0.072 16.9475C0.014 15.6675 0 15.259 0 12C0 8.741 0.014 8.3325 0.072 7.0525C0.161 5.1015 0.639 3.389 2.014 2.014C3.3895 0.6385 5.1025 0.161 7.0525 0.072ZM16.8491 2.23195C15.5836 2.17395 15.2041 2.16195 12.0001 2.16195C8.79611 2.16195 8.41661 2.17445 7.15111 2.23195C5.78561 2.29445 4.51811 2.56795 3.54311 3.54295C2.56811 4.51794 2.29461 5.78544 2.23211 7.15094C2.17411 8.41644 2.16211 8.79594 2.16211 11.9999C2.16211 15.2039 2.17461 15.5834 2.23211 16.8489C2.29461 18.2144 2.56811 19.4819 3.54311 20.4569C4.51811 21.4319 5.78561 21.7054 7.15111 21.7679C8.41611 21.8259 8.79561 21.8379 12.0001 21.8379C15.2046 21.8379 15.5841 21.8254 16.8491 21.7679C18.2146 21.7054 19.4821 21.4319 20.4571 20.4569C21.4321 19.4819 21.7056 18.2144 21.7681 16.8489C21.8261 15.5834 21.8381 15.2039 21.8381 11.9999C21.8381 8.79594 21.8256 8.41644 21.7681 7.15094C21.7056 5.78544 21.4321 4.51794 20.4571 3.54295C19.4821 2.56795 18.2146 2.29445 16.8491 2.23195Z" fill="white"/>
<path fill-rule="evenodd" clip-rule="evenodd" d="M6.54541 12.5454C6.54541 9.23188 9.23139 6.54541 12.5454 6.54541C15.8594 6.54541 18.5454 9.23139 18.5454 12.5454C18.5454 15.8594 15.8594 18.5454 12.5454 18.5454C9.23139 18.5454 6.54541 15.8589 6.54541 12.5454ZM8.65088 12.5454C8.65088 14.6963 10.3948 16.4402 12.5457 16.4402C14.6966 16.4402 16.4406 14.6963 16.4406 12.5454C16.4406 10.3945 14.6966 8.65055 12.5457 8.65055C10.3948 8.65055 8.65088 10.3945 8.65088 12.5454Z" fill="white"/>
<ellipse cx="18.0001" cy="6.00002" rx="1.63636" ry="1.63637" fill="white"/>
</svg>
