<svg width="115" height="113" viewBox="0 0 115 113" fill="none" xmlns="http://www.w3.org/2000/svg">
<path fill-rule="evenodd" clip-rule="evenodd" d="M1.20776 70.4001C9.79047 92.8457 29.5847 108.952 53.1044 109.864C85.3908 111.117 112.471 83.2645 113.591 47.6539C114.03 33.6847 110.409 20.5969 103.896 9.77284L98.7466 12.8132C104.802 22.6571 108.183 34.6323 107.781 47.4285C106.773 79.5002 82.3836 104.585 53.3058 103.457C31.9302 102.627 13.9714 87.8634 6.35759 67.3596L1.20776 70.4001Z" fill="#04A3A3"/>
<path fill-rule="evenodd" clip-rule="evenodd" d="M17.9326 72.6284C25.6016 85.5078 38.6458 94.2305 53.6899 94.8142C78.289 95.7687 98.9201 74.601 99.7707 47.5349C100.352 29.043 91.5497 12.582 78.0697 3.7041L73.9342 8.44388C86.3152 15.9684 94.499 30.6971 93.9769 47.3101C93.2369 70.8555 75.2895 89.2697 53.8903 88.4394C40.3219 87.9129 28.6237 79.776 22.0675 67.8892L17.9326 72.6284Z" fill="#161C2D"/>
</svg>
