<svg width="20" height="20" viewBox="0 0 20 20" fill="none" xmlns="http://www.w3.org/2000/svg">
<path d="M13.0723 9.16865L11.8012 11.3658L10.185 10.7157L9.91835 10.6084L9.69145 10.7849C9.36814 11.0363 9.00575 11.2453 8.62146 11.41L8.36249 11.5209L8.32328 11.7999L8.08161 13.5195H5.53382L5.29355 11.8099L5.25395 11.5282L4.99149 11.4183C4.60303 11.2557 4.25122 11.0483 3.92539 10.7949L3.69848 10.6184L3.4318 10.7257L1.81565 11.3758L0.544555 9.17865L1.91686 8.10306L2.14106 7.92733L2.10422 7.64486C2.07597 7.42833 2.05842 7.22113 2.05842 7.01953C2.05842 6.81775 2.07602 6.61106 2.10383 6.40709L2.14258 6.12292L1.91686 5.946L0.544555 4.87041L1.81566 2.67323L3.4318 3.3234L3.69848 3.43069L3.92539 3.25421C4.24869 3.00275 4.61108 2.7938 4.99538 2.6291L5.25434 2.51812L5.29355 2.23912L5.53522 0.519531H8.08302L8.32328 2.22912L8.36288 2.51088L8.62535 2.62075C9.0138 2.78336 9.36561 2.99078 9.69145 3.24421L9.91835 3.42069L10.185 3.3134L11.8012 2.66323L13.0723 4.86041L11.7 5.936L11.4758 6.11173L11.5126 6.3942C11.5409 6.61073 11.5584 6.81793 11.5584 7.01953C11.5584 7.22131 11.5408 7.428 11.513 7.63198L11.4743 7.91614L11.7 8.09306L13.0723 9.16865ZM18.4634 15.8788L18.4222 16.1675L18.6532 16.3455L19.4126 16.931L18.7533 18.0666L17.8548 17.7056L17.5806 17.5954L17.3518 17.7826C17.1805 17.9227 16.9656 18.0414 16.7153 18.1526L16.4629 18.2648L16.4235 18.5382L16.2879 19.4795H14.9789L14.8433 18.5382L14.8018 18.2505L14.5312 18.1442C14.302 18.0541 14.0937 17.93 13.8966 17.7758L13.6687 17.5975L13.4006 17.7062L12.5132 18.0659L11.8496 16.923L12.6057 16.334L12.8344 16.1558L12.7934 15.8688C12.777 15.7543 12.7684 15.6281 12.7684 15.4995C12.7684 15.371 12.777 15.2447 12.7934 15.1302L12.8344 14.8432L12.6057 14.6651L11.8496 14.0761L12.5132 12.9332L13.4006 13.2929L13.6687 13.4016L13.8966 13.2233C14.0828 13.0776 14.3027 12.957 14.5515 12.8464L14.8039 12.7342L14.8433 12.4608L14.9789 11.5195H16.2765L16.4135 12.4708L16.455 12.7586L16.7256 12.8649C16.9548 12.955 17.1632 13.079 17.3603 13.2333L17.5881 13.4116L17.8563 13.3029L18.7436 12.9432L19.4073 14.0861L18.6512 14.6751L18.4038 14.8677L18.4695 15.1743C18.4895 15.2675 18.4984 15.3793 18.4984 15.5095C18.4984 15.6199 18.4836 15.7378 18.4634 15.8788ZM4.30842 7.01953C4.30842 8.39567 5.43227 9.51953 6.80842 9.51953C8.18456 9.51953 9.30842 8.39567 9.30842 7.01953C9.30842 5.64339 8.18456 4.51953 6.80842 4.51953C5.43227 4.51953 4.30842 5.64339 4.30842 7.01953ZM13.7784 15.4995C13.7784 16.5281 14.6147 17.3495 15.6284 17.3495C16.6421 17.3495 17.4784 16.5281 17.4784 15.4995C17.4784 14.4734 16.6546 13.6495 15.6284 13.6495C14.6023 13.6495 13.7784 14.4734 13.7784 15.4995Z" stroke="#262626"/>
</svg>
