<svg width="194" height="80" viewBox="0 0 194 80" fill="none" xmlns="http://www.w3.org/2000/svg">
<rect width="194" height="80" rx="16" fill="white"/>
<circle cx="24" cy="28" r="8" fill="#E98080"/>
<path d="M57.272 26.103C58.4373 26.7743 59.02 27.7877 59.02 29.143C59.02 30.2703 58.621 31.195 57.823 31.917C57.025 32.639 56.0433 33 54.878 33H49.235V19.7H54.479C55.619 19.7 56.5753 20.0547 57.348 20.764C58.1333 21.4607 58.526 22.3537 58.526 23.443C58.526 24.545 58.108 25.4317 57.272 26.103ZM54.479 22.151H51.857V25.077H54.479C54.8843 25.077 55.22 24.9377 55.486 24.659C55.7647 24.3803 55.904 24.032 55.904 23.614C55.904 23.196 55.771 22.8477 55.505 22.569C55.239 22.2903 54.897 22.151 54.479 22.151ZM54.878 30.549C55.3213 30.549 55.6887 30.4033 55.98 30.112C56.2713 29.808 56.417 29.428 56.417 28.972C56.417 28.5287 56.2713 28.1613 55.98 27.87C55.6887 27.566 55.3213 27.414 54.878 27.414H51.857V30.549H54.878ZM68.6673 31.822C67.692 32.7847 66.5013 33.266 65.0953 33.266C63.6893 33.266 62.4987 32.7847 61.5233 31.822C60.5607 30.8467 60.0793 29.656 60.0793 28.25C60.0793 26.844 60.5607 25.6597 61.5233 24.697C62.4987 23.7217 63.6893 23.234 65.0953 23.234C66.5013 23.234 67.692 23.7217 68.6673 24.697C69.6427 25.6597 70.1303 26.844 70.1303 28.25C70.1303 29.656 69.6427 30.8467 68.6673 31.822ZM63.2523 30.131C63.7463 30.625 64.3607 30.872 65.0953 30.872C65.83 30.872 66.4443 30.625 66.9383 30.131C67.4323 29.637 67.6793 29.01 67.6793 28.25C67.6793 27.49 67.4323 26.863 66.9383 26.369C66.4443 25.875 65.83 25.628 65.0953 25.628C64.3607 25.628 63.7463 25.875 63.2523 26.369C62.771 26.863 62.5303 27.49 62.5303 28.25C62.5303 29.01 62.771 29.637 63.2523 30.131ZM79.7486 31.822C78.7733 32.7847 77.5826 33.266 76.1766 33.266C74.7706 33.266 73.5799 32.7847 72.6046 31.822C71.6419 30.8467 71.1606 29.656 71.1606 28.25C71.1606 26.844 71.6419 25.6597 72.6046 24.697C73.5799 23.7217 74.7706 23.234 76.1766 23.234C77.5826 23.234 78.7733 23.7217 79.7486 24.697C80.7239 25.6597 81.2116 26.844 81.2116 28.25C81.2116 29.656 80.7239 30.8467 79.7486 31.822ZM74.3336 30.131C74.8276 30.625 75.4419 30.872 76.1766 30.872C76.9113 30.872 77.5256 30.625 78.0196 30.131C78.5136 29.637 78.7606 29.01 78.7606 28.25C78.7606 27.49 78.5136 26.863 78.0196 26.369C77.5256 25.875 76.9113 25.628 76.1766 25.628C75.4419 25.628 74.8276 25.875 74.3336 26.369C73.8523 26.863 73.6116 27.49 73.6116 28.25C73.6116 29.01 73.8523 29.637 74.3336 30.131ZM91.4948 33H88.6448L85.1868 28.687V33H82.7358V19.7H85.1868V27.68L88.4548 23.5H91.3808L87.5618 28.193L91.4948 33ZM93.7343 22.36C93.3289 22.36 92.9743 22.2143 92.6703 21.923C92.3789 21.619 92.2333 21.2643 92.2333 20.859C92.2333 20.4537 92.3789 20.099 92.6703 19.795C92.9743 19.491 93.3289 19.339 93.7343 19.339C94.1523 19.339 94.5069 19.491 94.7983 19.795C95.1023 20.099 95.2543 20.4537 95.2543 20.859C95.2543 21.2643 95.1023 21.619 94.7983 21.923C94.5069 22.2143 94.1523 22.36 93.7343 22.36ZM92.5183 33V23.5H94.9693V33H92.5183ZM102.295 23.234C103.333 23.234 104.188 23.5823 104.86 24.279C105.544 24.9757 105.886 25.9383 105.886 27.167V33H103.435V27.471C103.435 26.8377 103.264 26.3563 102.922 26.027C102.58 25.685 102.124 25.514 101.554 25.514C100.92 25.514 100.414 25.7103 100.034 26.103C99.6536 26.4957 99.4636 27.0847 99.4636 27.87V33H97.0126V23.5H99.4636V24.564C100.059 23.6773 101.003 23.234 102.295 23.234ZM115.055 23.5H117.449V32.544C117.449 34.0133 116.962 35.1343 115.986 35.907C115.024 36.6797 113.858 37.066 112.49 37.066C111.464 37.066 110.559 36.8697 109.773 36.477C109.001 36.0843 108.405 35.508 107.987 34.748L110.077 33.551C110.559 34.4377 111.388 34.881 112.566 34.881C113.339 34.881 113.947 34.6783 114.39 34.273C114.834 33.8677 115.055 33.2913 115.055 32.544V31.518C114.333 32.4807 113.32 32.962 112.015 32.962C110.673 32.962 109.545 32.4933 108.633 31.556C107.734 30.606 107.284 29.4533 107.284 28.098C107.284 26.7553 107.74 25.609 108.652 24.659C109.564 23.709 110.685 23.234 112.015 23.234C113.32 23.234 114.333 23.7153 115.055 24.678V23.5ZM110.476 29.979C110.983 30.4603 111.623 30.701 112.395 30.701C113.168 30.701 113.801 30.4603 114.295 29.979C114.802 29.485 115.055 28.858 115.055 28.098C115.055 27.3507 114.802 26.7363 114.295 26.255C113.801 25.761 113.168 25.514 112.395 25.514C111.623 25.514 110.983 25.761 110.476 26.255C109.982 26.7363 109.735 27.3507 109.735 28.098C109.735 28.858 109.982 29.485 110.476 29.979ZM137.151 19.7V33H134.548V24.374L130.805 30.549H130.501L126.758 24.393V33H124.136V19.7H126.834L130.653 25.989L134.453 19.7H137.151ZM146.535 23.5H148.986V33H146.535V31.879C145.8 32.8037 144.768 33.266 143.438 33.266C142.171 33.266 141.082 32.7847 140.17 31.822C139.271 30.8467 138.821 29.656 138.821 28.25C138.821 26.844 139.271 25.6597 140.17 24.697C141.082 23.7217 142.171 23.234 143.438 23.234C144.768 23.234 145.8 23.6963 146.535 24.621V23.5ZM142.013 30.188C142.507 30.682 143.134 30.929 143.894 30.929C144.654 30.929 145.281 30.682 145.775 30.188C146.282 29.6813 146.535 29.0353 146.535 28.25C146.535 27.4647 146.282 26.825 145.775 26.331C145.281 25.8243 144.654 25.571 143.894 25.571C143.134 25.571 142.507 25.8243 142.013 26.331C141.519 26.825 141.272 27.4647 141.272 28.25C141.272 29.0353 141.519 29.6813 142.013 30.188ZM158.21 19.7H160.661V33H158.21V31.879C157.488 32.8037 156.462 33.266 155.132 33.266C153.852 33.266 152.757 32.7847 151.845 31.822C150.945 30.8467 150.496 29.656 150.496 28.25C150.496 26.844 150.945 25.6597 151.845 24.697C152.757 23.7217 153.852 23.234 155.132 23.234C156.462 23.234 157.488 23.6963 158.21 24.621V19.7ZM153.688 30.188C154.194 30.682 154.828 30.929 155.588 30.929C156.348 30.929 156.975 30.682 157.469 30.188C157.963 29.6813 158.21 29.0353 158.21 28.25C158.21 27.4647 157.963 26.825 157.469 26.331C156.975 25.8243 156.348 25.571 155.588 25.571C154.828 25.571 154.194 25.8243 153.688 26.331C153.194 26.825 152.947 27.4647 152.947 28.25C152.947 29.0353 153.194 29.6813 153.688 30.188ZM164.773 29.257C165.103 30.4477 165.996 31.043 167.452 31.043C168.39 31.043 169.099 30.7263 169.58 30.093L171.556 31.233C170.619 32.5883 169.238 33.266 167.414 33.266C165.844 33.266 164.583 32.791 163.633 31.841C162.683 30.891 162.208 29.694 162.208 28.25C162.208 26.8187 162.677 25.628 163.614 24.678C164.552 23.7153 165.755 23.234 167.224 23.234C168.618 23.234 169.764 23.7153 170.663 24.678C171.575 25.6407 172.031 26.8313 172.031 28.25C172.031 28.5667 172 28.9023 171.936 29.257H164.773ZM164.735 27.357H169.58C169.441 26.711 169.15 26.2297 168.706 25.913C168.276 25.5963 167.782 25.438 167.224 25.438C166.566 25.438 166.021 25.609 165.59 25.951C165.16 26.2803 164.875 26.749 164.735 27.357ZM53.776 57.266C52.4587 57.266 51.3503 56.9747 50.451 56.392C49.5517 55.7967 48.9183 54.9923 48.551 53.979L50.793 52.668C51.3123 54.0233 52.332 54.701 53.852 54.701C54.5867 54.701 55.125 54.568 55.467 54.302C55.809 54.036 55.98 53.7003 55.98 53.295C55.98 52.8263 55.771 52.4653 55.353 52.212C54.935 51.946 54.1877 51.661 53.111 51.357C52.5157 51.1797 52.009 51.0023 51.591 50.825C51.1857 50.6477 50.774 50.4133 50.356 50.122C49.9507 49.818 49.6403 49.438 49.425 48.982C49.2097 48.526 49.102 47.994 49.102 47.386C49.102 46.1827 49.5263 45.2263 50.375 44.517C51.2363 43.795 52.2687 43.434 53.472 43.434C54.5487 43.434 55.4923 43.7 56.303 44.232C57.1263 44.7513 57.766 45.4797 58.222 46.417L56.018 47.69C55.486 46.55 54.6373 45.98 53.472 45.98C52.9273 45.98 52.4967 46.1067 52.18 46.36C51.876 46.6007 51.724 46.9173 51.724 47.31C51.724 47.728 51.895 48.07 52.237 48.336C52.5917 48.5893 53.263 48.868 54.251 49.172C54.6563 49.2987 54.9603 49.4 55.163 49.476C55.3783 49.5393 55.6633 49.647 56.018 49.799C56.3853 49.9383 56.664 50.0713 56.854 50.198C57.0567 50.3247 57.2847 50.4957 57.538 50.711C57.7913 50.9263 57.9813 51.148 58.108 51.376C58.2473 51.604 58.3613 51.8827 58.45 52.212C58.5513 52.5287 58.602 52.877 58.602 53.257C58.602 54.4857 58.1523 55.461 57.253 56.183C56.3663 56.905 55.2073 57.266 53.776 57.266ZM61.2141 46.36C60.8088 46.36 60.4541 46.2143 60.1501 45.923C59.8588 45.619 59.7131 45.2643 59.7131 44.859C59.7131 44.4537 59.8588 44.099 60.1501 43.795C60.4541 43.491 60.8088 43.339 61.2141 43.339C61.6321 43.339 61.9868 43.491 62.2781 43.795C62.5821 44.099 62.7341 44.4537 62.7341 44.859C62.7341 45.2643 62.5821 45.619 62.2781 45.923C61.9868 46.2143 61.6321 46.36 61.2141 46.36ZM59.9981 57V47.5H62.4491V57H59.9981ZM74.9995 47.234C76.0888 47.234 76.9565 47.5887 77.6025 48.298C78.2612 49.0073 78.5905 49.9573 78.5905 51.148V57H76.1395V51.319C76.1395 50.749 76.0002 50.3057 75.7215 49.989C75.4428 49.6723 75.0502 49.514 74.5435 49.514C73.9862 49.514 73.5492 49.6977 73.2325 50.065C72.9285 50.4323 72.7765 50.9643 72.7765 51.661V57H70.3255V51.319C70.3255 50.749 70.1862 50.3057 69.9075 49.989C69.6288 49.6723 69.2362 49.514 68.7295 49.514C68.1848 49.514 67.7478 49.6977 67.4185 50.065C67.1018 50.4323 66.9435 50.9643 66.9435 51.661V57H64.4925V47.5H66.9435V48.507C67.5135 47.6583 68.3938 47.234 69.5845 47.234C70.7498 47.234 71.6112 47.69 72.1685 48.602C72.8018 47.69 73.7455 47.234 74.9995 47.234ZM86.0012 47.234C87.2805 47.234 88.3698 47.7217 89.2692 48.697C90.1812 49.6597 90.6372 50.844 90.6372 52.25C90.6372 53.656 90.1812 54.8467 89.2692 55.822C88.3698 56.7847 87.2805 57.266 86.0012 57.266C84.6712 57.266 83.6452 56.8037 82.9232 55.879V60.8H80.4722V47.5H82.9232V48.621C83.6452 47.6963 84.6712 47.234 86.0012 47.234ZM83.6642 54.188C84.1582 54.682 84.7852 54.929 85.5452 54.929C86.3052 54.929 86.9322 54.682 87.4262 54.188C87.9328 53.6813 88.1862 53.0353 88.1862 52.25C88.1862 51.4647 87.9328 50.825 87.4262 50.331C86.9322 49.8243 86.3052 49.571 85.5452 49.571C84.7852 49.571 84.1582 49.8243 83.6642 50.331C83.1702 50.825 82.9232 51.4647 82.9232 52.25C82.9232 53.0353 83.1702 53.6813 83.6642 54.188ZM92.1657 57V43.13H94.6167V57H92.1657ZM98.7311 53.257C99.0604 54.4477 99.9534 55.043 101.41 55.043C102.347 55.043 103.057 54.7263 103.538 54.093L105.514 55.233C104.577 56.5883 103.196 57.266 101.372 57.266C99.8014 57.266 98.5411 56.791 97.5911 55.841C96.6411 54.891 96.1661 53.694 96.1661 52.25C96.1661 50.8187 96.6347 49.628 97.5721 48.678C98.5094 47.7153 99.7127 47.234 101.182 47.234C102.575 47.234 103.722 47.7153 104.621 48.678C105.533 49.6407 105.989 50.8313 105.989 52.25C105.989 52.5667 105.957 52.9023 105.894 53.257H98.7311ZM98.6931 51.357H103.538C103.399 50.711 103.107 50.2297 102.664 49.913C102.233 49.5963 101.739 49.438 101.182 49.438C100.523 49.438 99.9787 49.609 99.5481 49.951C99.1174 50.2803 98.8324 50.749 98.6931 51.357Z" fill="black"/>
</svg>
