<svg width="24" height="25" viewBox="0 0 24 25" fill="none" xmlns="http://www.w3.org/2000/svg">
<path d="M21.8055 10.8166H21V10.7751H12V14.7751H17.6515C16.827 17.1036 14.6115 18.7751 12 18.7751C8.6865 18.7751 6 16.0886 6 12.7751C6 9.46165 8.6865 6.77515 12 6.77515C13.5295 6.77515 14.921 7.35215 15.9805 8.29465L18.809 5.46615C17.023 3.80165 14.634 2.77515 12 2.77515C6.4775 2.77515 2 7.25265 2 12.7751C2 18.2976 6.4775 22.7751 12 22.7751C17.5225 22.7751 22 18.2976 22 12.7751C22 12.1046 21.931 11.4501 21.8055 10.8166Z" fill="#FFC107"/>
<path d="M3.15295 8.12065L6.43845 10.5301C7.32745 8.32915 9.48045 6.77515 12 6.77515C13.5295 6.77515 14.921 7.35215 15.9805 8.29465L18.809 5.46615C17.023 3.80165 14.634 2.77515 12 2.77515C8.15895 2.77515 4.82795 4.94365 3.15295 8.12065Z" fill="#FF3D00"/>
<path d="M12 22.7752C14.583 22.7752 16.93 21.7867 18.7045 20.1792L15.6095 17.5602C14.6055 18.3207 13.3575 18.7752 12 18.7752C9.39903 18.7752 7.19053 17.1167 6.35853 14.8022L3.09753 17.3147C4.75253 20.5532 8.11353 22.7752 12 22.7752Z" fill="#4CAF50"/>
<path d="M21.8055 10.8166H21V10.7751H12V14.7751H17.6515C17.2555 15.8936 16.536 16.8581 15.608 17.5606L15.6095 17.5596L18.7045 20.1786C18.4855 20.3776 22 17.7751 22 12.7751C22 12.1046 21.931 11.4501 21.8055 10.8166Z" fill="#1976D2"/>
</svg>
