<svg width="236" height="48" viewBox="0 0 236 48" fill="none" xmlns="http://www.w3.org/2000/svg">
<path d="M16.857 29.3052C16.4882 28.9348 16.1244 28.5588 15.7545 28.1889C14.5417 26.9728 13.3289 25.7577 12.1162 24.5434L8.14214 20.5711C7.11312 19.549 6.07895 18.5323 5.03964 17.5209C4.52697 17.0248 3.91783 16.7426 3.18245 16.7492C2.21829 16.7563 1.25304 16.7398 0.288882 16.7266C0.0898774 16.7238 -0.00163177 16.8026 2.20078e-05 17.0022C0.00994469 17.9757 -0.00383681 18.9498 0.0347514 19.9239C0.0590069 20.5413 0.260768 21.1218 0.701776 21.5777C1.76938 22.678 2.84434 23.7708 3.92665 24.856C5.59146 26.528 7.26618 28.1895 8.93209 29.8598C10.7472 31.6801 12.5601 33.5025 14.3708 35.3272C14.3971 35.3533 14.4303 35.3713 14.4665 35.3789C14.5028 35.3866 14.5404 35.3836 14.575 35.3703C14.6096 35.357 14.6395 35.334 14.6613 35.304C14.6831 35.2741 14.6957 35.2385 14.6977 35.2015C14.808 33.1464 15.432 31.2964 16.8614 29.7666C17.0086 29.6051 17.0097 29.459 16.857 29.3052Z" fill="#F0001C"/>
<path d="M13.4365 14.983C15.2942 15.2117 16.9066 15.951 18.2324 17.2878C18.3427 17.398 18.4496 17.5055 18.5632 17.6185C18.5975 17.6524 18.6411 17.6754 18.6884 17.6846C18.7358 17.6939 18.7848 17.6889 18.8293 17.6703C18.8738 17.6518 18.9119 17.6205 18.9387 17.5804C18.9655 17.5403 18.9798 17.4931 18.9799 17.4449V5.8133C18.981 5.78046 18.9723 5.74804 18.9549 5.72018C18.9375 5.69231 18.9122 5.67026 18.8822 5.65683C18.8522 5.64341 18.8189 5.63922 18.7866 5.6448C18.7542 5.65038 18.7242 5.66547 18.7004 5.68816C18.2787 6.09719 17.8576 6.50623 17.4452 6.92464C16.5566 7.82484 15.6476 8.70686 14.7948 9.64014C13.5406 11.0117 13.0059 12.6721 13.0081 14.5133C13.0087 14.9284 13.0203 14.9317 13.4365 14.983Z" fill="#F0001C"/>
<path d="M27.7273 32.0505C26.7234 33.0555 25.7135 34.0549 24.7086 35.0593C23.9826 35.7848 23.2632 36.5174 22.5366 37.2428C21.68 38.0973 20.8167 38.9446 19.9617 39.8007C19.0868 40.6761 18.2241 41.5647 17.3454 42.4352C16.6712 43.1038 16.2473 43.8574 16.2914 44.8508C16.3261 45.6226 16.2848 46.3993 16.2782 47.1749C16.2774 47.3117 16.2927 47.448 16.3239 47.5812C16.3296 47.6056 16.3407 47.6284 16.3564 47.6479C16.3713 47.6664 16.39 47.6815 16.4112 47.6921C16.4324 47.7028 16.4557 47.7088 16.4794 47.7096L17.454 47.741L18.1706 47.7488H19.3807C19.5268 47.7443 19.6715 47.7185 19.8101 47.6721L20.5008 47.4406L20.4909 47.4439H20.4959L20.7208 47.3337L21.1177 47.0492H21.137L21.1447 47.0316C21.1923 47.0078 21.237 46.9788 21.2781 46.945L21.2908 46.9346C21.7627 46.477 22.2356 46.0206 22.702 45.5564C23.6965 44.5674 24.6887 43.5752 25.6788 42.5796C26.2411 42.0151 26.7968 41.4434 27.3552 40.8751H27.3717L27.3772 40.8591C27.4969 40.7489 27.6214 40.6458 27.7356 40.5284C28.4199 39.8356 29.1027 39.1414 29.784 38.4457H29.7984V38.4319L29.8568 38.3768L29.8612 38.3729C29.9456 38.2847 30.0305 38.1971 30.1154 38.1089L30.1335 38.0995L30.7951 37.4347L31.4444 36.7732L31.5707 36.6629L32.5392 35.6888H32.5558V35.6723L32.8237 35.3967L32.8915 35.3415L33.4891 34.7352L33.5503 34.68L34.2956 33.9391L35.2961 32.9347L35.3727 32.8631L35.6252 32.5968H35.6406L35.6456 32.5819L36.957 31.2589L37.0271 31.1994L37.075 31.1542L37.0811 31.1476L38.0502 30.174L38.129 30.1029C38.2145 30.0153 38.2994 29.9271 38.3843 29.8394L38.3997 29.8295L38.6009 29.6178L38.6362 29.5847C38.7271 29.5092 38.8242 29.4398 38.9069 29.3565C39.3021 28.9596 39.6902 28.5566 40.0854 28.1608C41.1938 27.0506 42.3035 25.9424 43.4145 24.8362C44.1741 24.0782 44.9426 23.329 45.6973 22.5661C45.9977 22.2623 46.2717 21.9316 46.5578 21.6135L46.5738 21.6074V21.5909L46.8461 21.232C47.1586 20.8653 47.3319 20.4002 47.3356 19.9184C47.361 18.9603 47.34 17.9956 47.3472 17.0309C47.3472 16.801 47.2524 16.7244 47.033 16.726C46.0225 16.7343 45.011 16.7089 44.001 16.7508C43.6482 16.7657 43.2761 16.8892 42.9581 17.0507C42.1411 17.4664 41.5909 18.2051 40.9465 18.8269C40.1951 19.5523 39.473 20.3081 38.7343 21.0474C37.7498 22.0325 36.7597 23.0126 35.7746 23.9972M42.597 18.0932C42.6245 18.0601 42.6521 18.0248 42.6769 17.9906C42.6499 18.0221 42.6218 18.0573 42.597 18.0904V18.0932ZM41.9807 18.6444C41.97 18.6587 41.9567 18.6709 41.9415 18.6803C41.9559 18.6708 41.9682 18.6586 41.9779 18.6444H41.9807ZM46.6824 21.2023L46.6273 21.1681C46.6439 21.181 46.6614 21.1927 46.6796 21.2034L46.6824 21.2023ZM41.4415 18.8605C41.4603 18.8241 41.4785 18.7872 41.4967 18.7503C41.4785 18.7866 41.4603 18.8236 41.4415 18.8605C41.3759 18.9063 41.3032 18.9454 41.2398 18.9934C41.3004 18.9465 41.3732 18.9074 41.4388 18.8616L41.4415 18.8605ZM27.6049 32.8625C27.7499 32.6575 27.8717 32.4303 28.0459 32.2517C27.8739 32.4303 27.7521 32.6575 27.6049 32.8636C27.6948 32.873 27.7841 32.8818 27.8701 32.8895L27.6055 32.8647C27.5388 32.8829 27.4566 32.8851 27.402 32.9199C27.4528 32.8868 27.5349 32.8846 27.6016 32.8647L27.6049 32.8625ZM26.2268 34.1304C26.2455 34.0753 26.2637 34.0202 26.2819 33.965C26.2631 34.0202 26.245 34.0753 26.2268 34.1304C26.1849 34.1585 26.1413 34.1856 26.0978 34.2098C26.138 34.1867 26.1816 34.1613 26.2229 34.1332L26.2268 34.1304ZM23.1397 37.2175C23.0763 37.2583 23.0091 37.2952 22.944 37.3344C23.0052 37.2985 23.0725 37.2616 23.1358 37.2208L23.1397 37.2175ZM16.7451 43.8326C16.7726 43.7775 16.8002 43.7224 16.8272 43.6672C16.7997 43.7229 16.7715 43.778 16.7445 43.8332L16.7451 43.8326ZM28.8728 39.1469L28.6187 39.4545L28.8717 39.1508L28.8728 39.1469ZM33.4891 34.5516C33.4977 34.5528 33.5062 34.5549 33.5144 34.5577C33.5061 34.5558 33.4976 34.5545 33.4891 34.5538V34.5516ZM33.9973 34.0764C33.9819 34.0797 33.9665 34.0825 33.9505 34.0847C33.9345 34.0869 33.9036 34.0929 33.8816 34.0985C33.9036 34.0929 33.9273 34.0891 33.9505 34.0847C33.9736 34.0803 33.9813 34.0803 33.9968 34.077L33.9973 34.0764ZM35.3755 32.518C35.4053 32.4916 35.437 32.4675 35.4703 32.4458C35.4372 32.4684 35.4057 32.4933 35.376 32.5202L35.3755 32.518ZM40.5573 27.5159C40.5755 27.4977 40.5937 27.4789 40.6124 27.4607C40.5943 27.4806 40.5761 27.4993 40.5573 27.5159ZM42.2662 25.8069C42.2844 25.7882 42.3032 25.77 42.3214 25.7518C42.3037 25.7717 42.285 25.7899 42.2662 25.8069ZM46.9845 20.4046C47.0175 20.2596 47.1631 20.1521 47.2254 20.0187C47.1636 20.1538 47.0181 20.2613 46.985 20.4046H46.9845Z" fill="#F0001C"/>
<path d="M47.4216 23.662L47.4046 23.5622C47.4026 23.5511 47.3984 23.5405 47.3923 23.531C47.3861 23.5215 47.3781 23.5134 47.3687 23.5071C47.3522 23.4952 47.332 23.4896 47.3117 23.4914C47.2915 23.4933 47.2726 23.5023 47.2585 23.517C43.2545 27.5379 39.2431 31.552 35.2245 35.5593C31.2785 39.5047 27.3343 43.4506 23.3426 47.4467C23.3173 47.4718 23.3 47.5038 23.293 47.5388C23.2859 47.5737 23.2893 47.6099 23.3028 47.6429C23.3163 47.6759 23.3393 47.7041 23.3689 47.724C23.3984 47.7439 23.4332 47.7547 23.4688 47.7548C25.0857 47.7614 26.7025 47.7829 28.3199 47.7609C28.9241 47.7516 29.5261 47.6875 30.1187 47.5696C31.345 47.333 32.4742 46.7399 33.3651 45.8645C35.2245 44.0509 37.0513 42.2042 38.8881 40.3674C41.043 38.2131 43.204 36.0637 45.3451 33.8956C46.6725 32.5511 47.3792 30.9188 47.4134 29.0235C47.4426 27.2468 47.4222 25.4701 47.4239 23.6929C47.424 23.6825 47.4232 23.6722 47.4216 23.662Z" fill="#F28500"/>
<path d="M40.3843 16.7365C38.5469 16.7404 36.7096 16.7398 34.8717 16.7519C33.1749 16.763 31.708 17.3721 30.504 18.5551C28.4533 20.57 26.4247 22.6091 24.395 24.6438C22.3911 26.652 20.3641 28.6404 18.4039 30.6911C17.2561 31.8923 16.5919 33.3846 16.5114 35.051C16.4259 36.8752 16.4733 38.7059 16.4651 40.5339C16.4653 40.5783 16.4679 40.6226 16.4728 40.6667C16.4756 40.6947 16.4862 40.7214 16.5035 40.7436C16.5208 40.7658 16.5441 40.7826 16.5706 40.7922C16.5971 40.8017 16.6257 40.8035 16.6532 40.7974C16.6807 40.7913 16.7059 40.7775 16.7258 40.7577L40.4879 16.9879C40.5085 16.9673 40.5225 16.9411 40.5283 16.9126C40.534 16.8841 40.5311 16.8545 40.52 16.8276C40.5089 16.8007 40.4901 16.7777 40.4659 16.7615C40.4418 16.7453 40.4134 16.7366 40.3843 16.7365Z" fill="#F28500"/>
<path d="M14.3598 37.9981C14.1285 37.6361 13.8636 37.2967 13.5687 36.9843C11.7799 35.1751 9.97617 33.3818 8.17851 31.5819C6.89223 30.2957 5.60816 29.0079 4.3263 27.7187C2.99299 26.3799 1.65967 25.0396 0.326355 23.6978C0.324609 23.6957 0.322566 23.6938 0.320291 23.6923C0.260188 23.6411 0.197442 23.5931 0.132312 23.5484C0.121033 23.5406 0.108031 23.5357 0.0944167 23.534C0.0808027 23.5323 0.0669831 23.5339 0.0541409 23.5387C0.0412987 23.5436 0.0298164 23.5514 0.0206771 23.5617C0.0115377 23.5719 0.00501352 23.5842 0.00166301 23.5975C0.000584986 23.605 0.000584986 23.6126 0.00166301 23.6201C0.00938065 25.3803 0.0242647 27.1404 0.0259185 28.9006C0.0259185 30.8636 0.729327 32.5362 2.10307 33.9253C3.41672 35.255 4.74912 36.5742 6.07435 37.901C7.62743 39.4523 9.17959 41.0039 10.7308 42.5559C11.9232 43.7532 13.1073 44.9583 14.2969 46.1578C14.334 46.1945 14.3732 46.2289 14.4144 46.2609C14.4376 46.2797 14.4656 46.2915 14.4953 46.295C14.525 46.2984 14.555 46.2934 14.5819 46.2805C14.6088 46.2675 14.6315 46.2472 14.6473 46.2219C14.6631 46.1966 14.6714 46.1673 14.6713 46.1374C14.6613 43.8221 14.6475 41.5068 14.642 39.1915C14.6409 38.7643 14.5952 38.3509 14.3598 37.9981Z" fill="#F28500"/>
<path d="M20.7009 8.69801C20.7086 9.72556 20.7125 10.7614 20.7136 11.7895C20.7136 12.9973 20.6883 14.1836 20.7009 15.392C20.7081 16.0711 20.7169 16.7646 20.7009 17.4432C20.6877 17.7429 20.6927 18.0432 20.7158 18.3423C20.7274 18.4636 20.7324 18.5849 20.7357 18.7067C20.7527 19.35 21.0807 19.9195 21.5284 20.3941C22.1833 21.0892 22.8514 21.7695 23.5283 22.4448C23.6082 22.5225 23.6999 22.5868 23.8001 22.6355C23.8213 22.6464 23.845 22.6514 23.8688 22.65C23.8926 22.6485 23.9155 22.6407 23.9352 22.6273C23.9413 22.6231 23.9463 22.6174 23.9495 22.6107L23.9958 22.5644L24.1187 22.4464C24.1695 22.3968 24.1435 22.3913 24.1899 22.3389C24.337 22.1664 25.1209 21.436 25.24 21.3169C26.6496 19.8412 25.4054 21.076 25.8888 20.6096C25.8995 20.5995 25.9096 20.5889 25.9192 20.5777C25.9368 20.5562 26.0796 20.3208 26.0934 20.296C26.2009 20.1019 26.1694 20.1102 26.3001 19.9327C26.5625 19.5771 26.7372 19.301 26.7372 18.8853C26.7411 14.3832 26.6115 9.75202 26.6115 5.24988C26.6115 4.91912 26.6424 4.58837 26.5928 4.26588C26.4991 3.65508 26.1573 3.16336 25.7317 2.73062C25.1524 2.14298 24.5636 1.5636 23.9787 0.979816C23.8089 0.810028 23.6645 0.814438 23.4898 0.996354C22.8883 1.61597 22.159 2.20306 21.5603 2.82433C21.277 3.1176 20.9308 3.48585 20.8217 3.89102C20.6419 4.55805 20.6822 5.23389 20.6888 5.9147C20.6971 6.84302 20.6943 7.77024 20.7009 8.69801Z" fill="#F28500"/>
<path d="M8.16306 18.1488C11.4614 21.4483 14.7583 24.7493 18.0538 28.0517C18.2743 28.2722 18.3222 28.2722 18.54 28.0462C19.1023 27.4673 19.6607 26.8836 20.2318 26.313C20.9132 25.6327 21.6015 24.9587 22.2968 24.291C22.4732 24.1212 22.4969 23.9911 22.3051 23.8163C22.0477 23.5815 21.809 23.3252 21.5642 23.0793C20.0367 21.5573 18.5323 20.0099 16.9733 18.5226C15.9331 17.5303 14.6729 16.9013 13.2209 16.7806C12.1062 16.688 10.9844 16.7326 9.86591 16.6858C8.95688 16.6858 8.04675 16.6858 7.13827 16.6908C7.12946 16.6902 7.12062 16.6902 7.11181 16.6908C7.07849 16.6967 7.04726 16.7111 7.0211 16.7326C6.99494 16.7541 6.97473 16.7819 6.96239 16.8135C6.95006 16.845 6.94602 16.8791 6.95066 16.9127C6.95529 16.9462 6.96845 16.978 6.98888 17.005C6.99699 17.016 7.00603 17.0263 7.01589 17.0358C7.39295 17.4135 7.78655 17.7723 8.16306 18.1488Z" fill="#F28500"/>
<path d="M34.5249 14.3071C34.4968 12.4664 33.9356 10.8149 32.6589 9.46373C31.7912 8.54478 30.8679 7.67765 29.9649 6.79177C29.5459 6.37998 29.1182 5.97811 28.6898 5.57569C28.6656 5.55397 28.6355 5.53988 28.6033 5.53518C28.5711 5.53048 28.5383 5.53538 28.5088 5.54927C28.4794 5.56316 28.4548 5.58541 28.4379 5.61325C28.4211 5.6411 28.4128 5.67328 28.4142 5.70579L28.6038 17.3374C28.605 17.3855 28.6203 17.4322 28.6479 17.4716C28.6754 17.5111 28.714 17.5415 28.7588 17.5592C28.8035 17.5768 28.8525 17.5809 28.8996 17.5708C28.9466 17.5608 28.9897 17.5371 29.0234 17.5028C29.1364 17.387 29.2439 17.2773 29.3502 17.1665C30.649 15.806 32.2477 15.0408 34.1038 14.7817C34.5189 14.7239 34.5304 14.72 34.5249 14.3071Z" fill="#F0001C"/>
<path d="M64.2628 35.2006L67.1091 17.1531H59.8213L60.4781 13.1495H79.9019L79.2763 17.1531H71.9885L69.1109 35.2006H64.2628Z" fill="#232323"/>
<path d="M78.3641 35.2006L81.8673 13.1495H86.5903L85.2141 21.9699C86.3401 20.3435 88.0187 19.5302 90.2499 19.5302C91.918 19.5302 93.19 20.0515 94.0658 21.0941C94.9624 22.1368 95.2335 23.7945 94.879 26.0674L93.4402 35.2006H88.7172L90.1248 26.1612C90.4584 24.1803 89.8224 23.1898 88.2168 23.1898C87.1533 23.1898 86.2984 23.5338 85.652 24.222C85.0056 24.8892 84.5885 25.8172 84.4008 27.0057L83.0872 35.2006H78.3641Z" fill="#232323"/>
<path d="M105.317 35.5447C103.712 35.5447 102.315 35.2528 101.126 34.6689C99.9376 34.0642 99.0201 33.2405 98.3736 32.1979C97.7272 31.1345 97.404 29.8937 97.404 28.4758C97.404 26.7242 97.7689 25.1812 98.4988 23.8466C99.2494 22.4912 100.271 21.4382 101.564 20.6875C102.878 19.916 104.369 19.5302 106.037 19.5302C107.747 19.5302 109.113 19.9056 110.134 20.6562C111.156 21.3861 111.865 22.3766 112.261 23.6277C112.657 24.858 112.762 26.2238 112.574 27.7251L112.449 28.5384H101.783C101.804 29.6435 102.158 30.4985 102.846 31.1032C103.535 31.7079 104.515 32.0102 105.787 32.0102C106.662 32.0102 107.507 31.8851 108.32 31.6349C109.154 31.3847 109.894 31.0198 110.541 30.5402L111.573 33.6367C110.822 34.2206 109.894 34.6897 108.789 35.0442C107.684 35.3779 106.527 35.5447 105.317 35.5447ZM106.006 22.6581C104.88 22.6581 104.004 23.0021 103.378 23.6902C102.753 24.3575 102.336 25.1603 102.127 26.0987H108.946C109.008 25.1186 108.8 24.3054 108.32 23.659C107.861 22.9917 107.09 22.6581 106.006 22.6581Z" fill="#232323"/>
<path d="M123.244 35.2006L126.748 13.1495H131.596L130.188 22.0012H140.416L141.855 13.1495H146.703L143.2 35.2006H138.352L139.791 26.0361H129.531L128.093 35.2006H123.244Z" fill="#232323"/>
<path d="M155.595 35.5447C153.989 35.5447 152.592 35.2528 151.403 34.6689C150.215 34.0642 149.297 33.2405 148.651 32.1979C148.005 31.1345 147.681 29.8937 147.681 28.4758C147.681 26.7242 148.046 25.1812 148.776 23.8466C149.527 22.4912 150.548 21.4382 151.841 20.6875C153.155 19.916 154.646 19.5302 156.314 19.5302C158.024 19.5302 159.39 19.9056 160.412 20.6562C161.433 21.3861 162.142 22.3766 162.538 23.6277C162.935 24.858 163.039 26.2238 162.851 27.7251L162.726 28.5384H152.06C152.081 29.6435 152.436 30.4985 153.124 31.1032C153.812 31.7079 154.792 32.0102 156.064 32.0102C156.94 32.0102 157.784 31.8851 158.597 31.6349C159.432 31.3847 160.172 31.0198 160.818 30.5402L161.85 33.6367C161.1 34.2206 160.172 34.6897 159.067 35.0442C157.961 35.3779 156.804 35.5447 155.595 35.5447ZM156.283 22.6581C155.157 22.6581 154.281 23.0021 153.655 23.6902C153.03 24.3575 152.613 25.1603 152.404 26.0987H159.223C159.286 25.1186 159.077 24.3054 158.597 23.659C158.139 22.9917 157.367 22.6581 156.283 22.6581Z" fill="#232323"/>
<path d="M169.727 35.5447C168.768 35.5447 167.892 35.3257 167.1 34.8878C166.307 34.4291 165.682 33.8348 165.223 33.105C164.764 32.3752 164.535 31.5828 164.535 30.7278C164.535 29.1014 165.223 27.9232 166.599 27.1934C167.996 26.4427 170.175 26.0674 173.136 26.0674H175.263L175.326 25.6608C175.472 24.8058 175.315 24.149 174.857 23.6902C174.419 23.2315 173.668 23.0021 172.605 23.0021C170.77 23.0021 168.997 23.513 167.287 24.5347L166.318 21.3444C167.131 20.8022 168.163 20.3643 169.414 20.0307C170.686 19.697 171.969 19.5302 173.262 19.5302C175.013 19.5302 176.389 19.8534 177.39 20.4999C178.391 21.1463 179.069 22.0221 179.423 23.1272C179.778 24.2115 179.84 25.4314 179.611 26.7868L178.297 35.2006H173.887L174.231 32.9486C173.731 33.8452 173.084 34.5021 172.292 34.9191C171.5 35.3362 170.645 35.5447 169.727 35.5447ZM171.322 32.3856C172.219 32.3856 172.97 32.1145 173.574 31.5723C174.2 31.0093 174.586 30.2587 174.732 29.3203L174.888 28.5071H173.23C171.708 28.5071 170.634 28.653 170.009 28.945C169.383 29.2161 169.07 29.7061 169.07 30.4151C169.07 31.0406 169.279 31.5306 169.696 31.8851C170.134 32.2188 170.676 32.3856 171.322 32.3856Z" fill="#232323"/>
<path d="M187.67 35.5447C185.751 35.5447 184.375 35.0234 183.541 33.9808C182.707 32.9173 182.446 31.3847 182.759 29.3829L185.324 13.1495H190.047L187.482 29.3203C187.253 30.9259 187.857 31.7287 189.296 31.7287C189.505 31.7287 189.723 31.7183 189.953 31.6975C190.182 31.6766 190.412 31.6558 190.641 31.6349L190.015 35.2319C189.327 35.4404 188.545 35.5447 187.67 35.5447Z" fill="#232323"/>
<path d="M200.435 35.5447C198.829 35.5447 197.432 35.2528 196.244 34.6689C195.055 34.0642 194.138 33.2405 193.491 32.1979C192.845 31.1345 192.522 29.8937 192.522 28.4758C192.522 26.7242 192.886 25.1812 193.616 23.8466C194.367 22.4912 195.389 21.4382 196.682 20.6875C197.995 19.916 199.486 19.5302 201.154 19.5302C202.864 19.5302 204.23 19.9056 205.252 20.6562C206.274 21.3861 206.983 22.3766 207.379 23.6277C207.775 24.858 207.879 26.2238 207.692 27.7251L207.566 28.5384H196.901C196.921 29.6435 197.276 30.4985 197.964 31.1032C198.652 31.7079 199.632 32.0102 200.904 32.0102C201.78 32.0102 202.624 31.8851 203.438 31.6349C204.272 31.3847 205.012 31.0198 205.658 30.5402L206.691 33.6367C205.94 34.2206 205.012 34.6897 203.907 35.0442C202.802 35.3779 201.644 35.5447 200.435 35.5447ZM201.123 22.6581C199.997 22.6581 199.121 23.0021 198.496 23.6902C197.87 24.3575 197.453 25.1603 197.245 26.0987H204.063C204.126 25.1186 203.917 24.3054 203.438 23.659C202.979 22.9917 202.207 22.6581 201.123 22.6581Z" fill="#232323"/>
<path d="M209.25 35.2006L211.69 19.843H216.319L215.881 22.4704C216.361 21.6154 217.017 20.9378 217.852 20.4373C218.686 19.916 219.676 19.6136 220.823 19.5302L222.262 19.4364L222.105 23.4087L219.103 23.7215C217.852 23.8466 216.944 24.2115 216.381 24.8163C215.839 25.421 215.474 26.3176 215.287 27.5062L214.067 35.2006H209.25Z" fill="#232323"/>
<path d="M228.525 35.5447C227.19 35.5447 225.928 35.3883 224.74 35.0755C223.551 34.7627 222.55 34.3144 221.737 33.7305L223.113 30.6966C223.864 31.197 224.719 31.5932 225.678 31.8851C226.637 32.1562 227.576 32.2917 228.493 32.2917C229.39 32.2917 230.057 32.1354 230.495 31.8226C230.954 31.5098 231.183 31.1136 231.183 30.634C231.183 29.9459 230.693 29.508 229.713 29.3203L226.867 28.7886C225.637 28.5801 224.688 28.1317 224.02 27.4436C223.353 26.7346 223.02 25.8484 223.02 24.785C223.02 23.8466 223.291 22.9813 223.833 22.1889C224.396 21.3756 225.219 20.7292 226.304 20.2496C227.388 19.77 228.723 19.5302 230.307 19.5302C231.287 19.5302 232.288 19.6762 233.31 19.9681C234.353 20.2392 235.249 20.6562 236 21.2193L234.686 24.1907C233.998 23.7111 233.248 23.3566 232.434 23.1272C231.642 22.877 230.85 22.7519 230.057 22.7519C229.119 22.7519 228.41 22.9187 227.93 23.2523C227.471 23.586 227.242 24.0134 227.242 24.5347C227.242 24.8267 227.336 25.0873 227.524 25.3167C227.732 25.5252 228.066 25.6712 228.525 25.7546L231.34 26.2863C234.05 26.7868 235.406 28.1213 235.406 30.2899C235.406 31.979 234.77 33.2822 233.498 34.1997C232.247 35.0964 230.589 35.5447 228.525 35.5447Z" fill="#232323"/>
</svg>
