<svg width="24" height="24" viewBox="0 0 24 24" fill="none" xmlns="http://www.w3.org/2000/svg">
<path fill-rule="evenodd" clip-rule="evenodd" d="M1 0H23C23.55 0 24 0.45 24 1V23C24 23.55 23.55 24 23 24H1C0.45 24 0 23.55 0 23V1C0 0.45 0.45 0 1 0ZM3.55029 20.45H7.10029V9H3.55029V20.45ZM5.35029 7.44993C4.20029 7.44993 3.30029 6.54993 3.30029 5.39993C3.30029 4.24993 4.20029 3.34993 5.35029 3.34993C6.50029 3.34993 7.40029 4.24993 7.40029 5.39993C7.40029 6.49993 6.50029 7.44993 5.35029 7.44993ZM16.9001 20.45H20.4001V14.15C20.4001 11.05 19.7501 8.70003 16.1501 8.70003C14.4501 8.70003 13.2501 9.65003 12.8001 10.55H12.7501V9.00003H9.3501V20.45H12.9001V14.8C12.9001 13.3 13.2001 11.85 15.0501 11.85C16.9001 11.85 16.9001 13.55 16.9001 14.9V20.45Z" fill="white"/>
</svg>
