<svg width="16" height="16" viewBox="0 0 16 16" fill="none" xmlns="http://www.w3.org/2000/svg">
<path fill-rule="evenodd" clip-rule="evenodd" d="M3.64463 2.92805C3.8397 3.12351 3.83939 3.44009 3.64393 3.63515C2.52485 4.752 1.83337 6.29479 1.83337 8C1.83337 9.7252 2.54113 11.2841 3.68339 12.4039C3.88059 12.5973 3.88373 12.9138 3.69042 13.111C3.49711 13.3082 3.18055 13.3113 2.98335 13.118C1.65713 11.8179 0.833374 10.0047 0.833374 8C0.833374 6.01855 1.63818 4.22411 2.93753 2.92735C3.13298 2.73228 3.44957 2.73259 3.64463 2.92805ZM12.411 2.97631C12.6082 2.78299 12.9247 2.78614 13.118 2.98333C14.3848 4.27551 15.1667 6.04695 15.1667 8C15.1667 9.97633 14.3661 11.7666 13.0727 13.0625C12.8776 13.258 12.561 13.2583 12.3656 13.0633C12.1702 12.8682 12.1698 12.5516 12.3649 12.3561C13.4788 11.24 14.1667 9.7008 14.1667 8C14.1667 6.31915 13.4948 4.7962 12.404 3.68338C12.2106 3.48619 12.2138 3.16962 12.411 2.97631ZM5.53953 4.99171C5.72821 5.19334 5.71772 5.50975 5.51609 5.69843C4.88349 6.29043 4.50004 7.10013 4.50004 7.98813C4.50004 8.88647 4.8925 9.70487 5.53841 10.2986C5.74171 10.4855 5.75503 10.8017 5.56815 11.0051C5.38127 11.2083 5.06497 11.2217 4.86167 11.0348C4.02649 10.2671 3.50004 9.18827 3.50004 7.98813C3.50004 6.802 4.01436 5.73419 4.83281 4.96828C5.03444 4.77959 5.35085 4.79009 5.53953 4.99171ZM10.4953 5.01706C10.6862 4.81751 11.0026 4.81047 11.2022 5.00135C12.0004 5.76476 12.5 6.81907 12.5 7.98813C12.5 9.1712 11.9884 10.2365 11.1736 11.002C10.9724 11.1911 10.656 11.1813 10.4669 10.98C10.2778 10.7787 10.2877 10.4623 10.4889 10.2733C11.1186 9.68167 11.5 8.87387 11.5 7.98813C11.5 7.1128 11.1274 6.31364 10.511 5.72399C10.3114 5.53312 10.3044 5.21661 10.4953 5.01706Z" fill="#595959"/>
<path d="M9.10416 6.9674C9.70136 7.40587 9.99996 7.62507 9.99996 8C9.99996 8.37493 9.70136 8.59413 9.10416 9.0326C8.93936 9.1536 8.77583 9.2676 8.62556 9.36253C8.49376 9.44587 8.34449 9.532 8.18989 9.6166C7.59416 9.94267 7.29623 10.1057 7.02909 9.9252C6.76189 9.74467 6.73763 9.3668 6.68909 8.61107C6.67536 8.39733 6.66663 8.1878 6.66663 8C6.66663 7.8122 6.67536 7.60267 6.68909 7.38893C6.73763 6.63318 6.76189 6.25531 7.02909 6.0748C7.29623 5.89429 7.59416 6.05733 8.18989 6.38339C8.34449 6.46799 8.49376 6.55415 8.62556 6.63746C8.77583 6.7324 8.93936 6.8464 9.10416 6.9674Z" fill="#595959"/>
</svg>
