<svg width="21" height="20" viewBox="0 0 21 20" fill="none" xmlns="http://www.w3.org/2000/svg">
<path d="M10.4642 0.256421L13.3179 6.32115L19.6972 7.2939C19.8624 7.31957 19.9994 7.44082 20.0508 7.60687C20.1022 7.77292 20.0593 7.9551 19.9399 8.07711L15.3247 12.7968L16.4143 19.4624C16.443 19.6343 16.3756 19.8083 16.2407 19.911C16.1058 20.0138 15.9268 20.0273 15.779 19.9461L10.0729 16.7996L4.36667 19.947C4.21906 20.0286 4.03991 20.0152 3.90491 19.9125C3.7699 19.8098 3.70258 19.6357 3.73139 19.4638L4.82106 12.7968L0.204541 8.07711C0.0851418 7.9551 0.0421613 7.77292 0.0936023 7.60687C0.145043 7.44082 0.282026 7.31957 0.447172 7.2939L6.82647 6.32115L9.68152 0.256421C9.75417 0.0996028 9.90618 0 10.0729 0C10.2395 0 10.3915 0.0996028 10.4642 0.256421Z" fill="#FCAD38"/>
</svg>
